/* XPM */
static char *ac_attrs_16x16_xpm[] = {
/* width height ncolors chars_per_pixel */
"16 16 97 2",
"   c #f0f0f0",
" . c #303030",
" + c #707070",
" @ c #404040",
" # c #909090",
" $ c #e0e0e0",
" % c #010101",
" & c #020202",
" * c #f7f7f7",
" = c #757575",
" - c #ececec",
" ; c #414141",
" > c #060606",
" , c #747474",
" ' c #6b6b6b",
" ) c #818181",
" ! c #595959",
" ~ c #646464",
" { c #f3f3f3",
" ] c #6d6d6d",
" ^ c #4c4c4c",
" / c #090909",
" ( c #ffffff",
" _ c #111111",
" : c #d4d4d4",
" < c #b7b7b7",
" [ c #bdbdbd",
" } c #565656",
" | c #1a1a1a",
" 1 c #cacaca",
" 2 c #a3a3a3",
" 3 c #5f5f5f",
" 4 c #0b0b0b",
" 5 c #343434",
" 6 c #1c1c1c",
" 7 c #f5f5f5",
" 8 c #f1f1f1",
" 9 c #252525",
" 0 c #9f9f9f",
" a c #e7e7e7",
" b c #989898",
" c c #585858",
" d c #333333",
" e c #242424",
" f c #dfdfdf",
" g c #777777",
" h c #d3d3d3",
" i c #4d4d4d",
" j c #e6e6e6",
" k c #232323",
" l c #272727",
" m c #797979",
" n c #848484",
" o c #323232",
" p c #0d0d0d",
" q c #979797",
" r c #c2c2c2",
" s c #f4f4f4",
" t c #1e1e1e",
" u c #959595",
" v c #525252",
" w c #686868",
" x c #e8e8e8",
" y c #3a3a3a",
" z c #fbfbfb",
" A c #9a9a9a",
" B c #8b8b8b",
" C c #0e0e0e",
" D c #cccccc",
" E c #fdfdfd",
" F c #b5b5b5",
" G c #fafafa",
" H c #545454",
" I c #d9d9d9",
" J c #fefefe",
" K c #444444",
" L c #898989",
" M c #212121",
" N c #6a6a6a",
" O c #2c2c2c",
" P c #1b1b1b",
" Q c #191919",
" R c #7d7d7d",
" S c #d1d1d1",
" T c #838383",
" U c #a1a1a1",
" V c #383838",
" W c #e5e5e5",
" X c #636363",
" Y c #e1e1e1",
" Z c #8f8f8f",
" ` c #8c8c8c",
".  c #141414",
".. c #a2a2a2",
".+ c #494949",
".@ c #5a5a5a",
".# c #fcfcfc",
" % & & & & & & & & & & & & & & %",
" & ( ( ( ( ( ( ( ( ( ( ( ( ( ( &",
" & ( ( ( ( (   U = ] ` I ( ( ( &",
" & ( ( ( ( U Q 3 b.. m t ' z ( &",
" & ( ( ( 2 . f ( ( ( ( 7 } + ( &",
" & ( ( - M W s ~ _ @ 2 X * e f &",
" & ( ( B ) ( v c { F > N ( m q &",
" & ( ( K S S C 8 ( ( 9 0 ( # n &",
" & ( ( k s ` i ( ( ( | h ( w.. &",
" & ( ( e   T ! ( ( 1 4.# x 6 - &",
" & ( (.+ r r.  Y $ O l : 5 b ( &",
" & ( ( A.@ ( R p V U / P A { a &",
" & ( ( G d Z ( ( ( ( E ( a o.. &",
" & ( ( ( x @ y u r D < g | A ( &",
" & ( ( ( ( J [ , ^ ; H L j ( ( &",
" % & & & & & & & & & & & & & & %",
};