/* XPM */
static char *ac_consts_16x16_xpm[] = {
/* width height ncolors chars_per_pixel */
"16 16 49 1",
"  c #707070",
". c #606060",
"+ c #505050",
"@ c #202020",
"# c #101010",
"$ c #010101",
"% c #020202",
"& c #050505",
"* c #060606",
"= c #2a2a2a",
"- c #adadad",
"; c #c6c6c6",
"> c #646464",
", c #090909",
"' c #ffffff",
") c #454545",
"! c #1f1f1f",
"~ c #565656",
"{ c #1c1c1c",
"] c #f5f5f5",
"^ c #e7e7e7",
"/ c #585858",
"( c #333333",
"_ c #2b2b2b",
": c #dfdfdf",
"< c #121212",
"[ c #ebebeb",
"} c #434343",
"| c #e6e6e6",
"1 c #939393",
"2 c #c9c9c9",
"3 c #535353",
"4 c #dcdcdc",
"5 c #525252",
"6 c #696969",
"7 c #fbfbfb",
"8 c #fdfdfd",
"9 c #d9d9d9",
"0 c #464646",
"a c #515151",
"b c #fefefe",
"c c #9d9d9d",
"d c #292929",
"e c #b4b4b4",
"f c #4e4e4e",
"g c #f8f8f8",
"h c #b8b8b8",
"i c #a4a4a4",
"j c #fcfcfc",
"$%%%%%%%%%%%%%%$",
"%''''''''''''''%",
"%''''''''''''''%",
"%''''''''''''''%",
"%''''b-fd( ^'''%",
"%''''>!i92~{^''%",
"%'''e*4'''j}c''%",
"%'''.)'''''''''%",
"%'''0>'''''''''%",
"%'''/a'''''8'''%",
"%'''c<]''''36''%",
"%'''g=+^'71&;''%",
"%''''|5,@#_h'''%",
"%''''''g:['''''%",
"%''''''''''''''%",
"$%%%%%%%%%%%%%%$",
};