/* XPM */
static char *ac_enums_16x16_xpm[] = {
/* width height ncolors chars_per_pixel */
"16 16 22 1",
"  c #505050",
". c #e0e0e0",
"+ c #000000",
"@ c #010101",
"# c #020202",
"$ c #ededed",
"% c #070707",
"& c #f3f3f3",
"* c #ffffff",
"= c #424242",
"- c #dbdbdb",
"; c #181818",
"> c #dfdfdf",
", c #f6f6f6",
"' c #535353",
") c #8a8a8a",
"! c #fbfbfb",
"~ c #575757",
"{ c #4e4e4e",
"] c #636363",
"^ c #141414",
"/ c #5b5b5b",
"@##############@",
"#**************#",
"#**************#",
"#**************#",
"#***];;;;;;)***#",
"#***'{-----$***#",
"#***'/*********#",
"#***' >>>>>!***#",
"#***'%^^^^^.***#",
"#***'/*********#",
"#***'/*********#",
"#***'~&&&&&,***#",
"#***'++++++=***#",
"#**************#",
"#**************#",
"@##############@",
};