/* XPM */
static char *ac_globfuncs_16x16_xpm[] = {
/* width height ncolors chars_per_pixel */
"16 16 50 1",
"  c #000000",
". c #010101",
"+ c #020202",
"@ c #f7f7f7",
"# c #bababa",
"$ c #f2f2f2",
"% c #6b6b6b",
"& c #adadad",
"* c #c8c8c8",
"= c #080808",
"- c #f3f3f3",
"; c #3e3e3e",
"> c #ffffff",
", c #b3b3b3",
"' c #bcbcbc",
") c #737373",
"! c #0b0b0b",
"~ c #cbcbcb",
"{ c #1c1c1c",
"] c #d7d7d7",
"^ c #181818",
"/ c #474747",
"( c #3d3d3d",
"_ c #a9a9a9",
": c #ebebeb",
"< c #bbbbbb",
"[ c #797979",
"} c #848484",
"| c #323232",
"1 c #c9c9c9",
"2 c #f4f4f4",
"3 c #525252",
"4 c #fbfbfb",
"5 c #8b8b8b",
"6 c #131313",
"7 c #fdfdfd",
"8 c #fafafa",
"9 c #3c3c3c",
"0 c #fefefe",
"a c #575757",
"b c #898989",
"c c #1b1b1b",
"d c #0f0f0f",
"e c #d1d1d1",
"f c #838383",
"g c #9c9c9c",
"h c #a1a1a1",
"i c #f8f8f8",
"j c #1d1d1d",
"k c #a2a2a2",
".++++++++++++++.",
"+>>>>>>>>>>>>>>+",
"+>>>>>>>>>>>>>>+",
"+>>>>>>>7@@@@@@+",
"+>>>>>>>*     =+",
"+>>>>>>>* 44444+",
"+>2}a5&<* >>>>>+",
"+>/3')=f* ]]]]-+",
"+ed@>>(f* {{{{#+",
"+_|>>>%f* >>>>>+",
"+#j>>>af* >>>>>+",
"+icg>1!f* >>>>>+",
"+>~|6;9b* >>>>>+",
"+$h0>>;k>>>>>>>+",
"+8j),[^:>>>>>>>+",
".+.   .++++++++.",
};