/* XPM */
static char *ac_gvars_16x16_xpm[] = {
/* width height ncolors chars_per_pixel */
"16 16 70 1",
"  c #000000",
". c #505050",
"+ c #202020",
"@ c #b0b0b0",
"# c #010101",
"$ c #020202",
"% c #030303",
"& c #f7f7f7",
"* c #bababa",
"= c #757575",
"- c #050505",
"; c #ececec",
"> c #060606",
", c #6b6b6b",
"' c #adadad",
") c #7f7f7f",
"! c #484848",
"~ c #c8c8c8",
"{ c #c1c1c1",
"] c #6d6d6d",
"^ c #ffffff",
"/ c #111111",
"( c #d4d4d4",
"_ c #393939",
": c #e9e9e9",
"< c #dddddd",
"[ c #cecece",
"} c #717171",
"| c #d5d5d5",
"1 c #acacac",
"2 c #cacaca",
"3 c #7b7b7b",
"4 c #0b0b0b",
"5 c #d7d7d7",
"6 c #858585",
"7 c #989898",
"8 c #d8d8d8",
"9 c #181818",
"0 c #828282",
"a c #262626",
"b c #3d3d3d",
"c c #434343",
"d c #363636",
"e c #949494",
"f c #e6e6e6",
"g c #939393",
"h c #6c6c6c",
"i c #222222",
"j c #161616",
"k c #686868",
"l c #fbfbfb",
"m c #d6d6d6",
"n c #fdfdfd",
"o c #b5b5b5",
"p c #fafafa",
"q c #545454",
"r c #3c3c3c",
"s c #fefefe",
"t c #6a6a6a",
"u c #5e5e5e",
"v c #191919",
"w c #b4b4b4",
"x c #838383",
"y c #a1a1a1",
"z c #e1e1e1",
"A c #555555",
"B c #6e6e6e",
"C c #1d1d1d",
"D c #fcfcfc",
"E c #efefef",
"#$$$$$$$$$$$$$$#",
"$^^^^^^^^^^^^^^$",
"$^^^^^^^^^^^^^^$",
"$^^^^^s&n^^^^^&#",
"$^^^^^DC7^^^^|>#",
"$^^^^^^)r^^^^=A$",
"$^[ku{3(%<^^lv*$",
"$m/ewd%:!0^^win$",
"$,]^^m :1a^^q6^$",
"$c7^^^-:pj~;4f^$",
"$qx^^E#:^=hg.^^$",
"$'+zD} :^8v_o^^$",
"$^6v9B E^^bCD^^$",
"$~2^^54n^^^^^^^$",
"$@vy'_t^^^^^^^^$",
"#$#  ##$$$$$$$$#",
};