/* XPM */
static char *ac_ofuncs_16x16_xpm[] = {
/* width height ncolors chars_per_pixel */
"16 16 51 1",
"  c #303030",
". c #000000",
"+ c #808080",
"@ c #010101",
"# c #020202",
"$ c #f7f7f7",
"% c #ededed",
"& c #a7a7a7",
"* c #666666",
"= c #7f7f7f",
"- c #f9f9f9",
"; c #595959",
"> c #c8c8c8",
", c #aeaeae",
"' c #f3f3f3",
") c #e2e2e2",
"! c #ffffff",
"~ c #d5d5d5",
"{ c #1a1a1a",
"] c #5f5f5f",
"^ c #7a7a7a",
"/ c #343434",
"( c #cbcbcb",
"_ c #1c1c1c",
": c #7e7e7e",
"< c #858585",
"[ c #d8d8d8",
"} c #181818",
"| c #434343",
"1 c #afafaf",
"2 c #272727",
"3 c #848484",
"4 c #c5c5c5",
"5 c #979797",
"6 c #f4f4f4",
"7 c #525252",
"8 c #e8e8e8",
"9 c #3a3a3a",
"0 c #fbfbfb",
"a c #9a9a9a",
"b c #0e0e0e",
"c c #cccccc",
"d c #fdfdfd",
"e c #fafafa",
"f c #727272",
"g c #a5a5a5",
"h c #9d9d9d",
"i c #383838",
"j c #c7c7c7",
"k c #494949",
"l c #fcfcfc",
"@##############@",
"#!!!!!!!!!!!!!!#",
"#!!!!!!!!!!!!!!#",
"#!!!!!!!!!!!!!!#",
"#!!!!!!!~     /#",
"#!!!!!!!(.4jjj>#",
"#!-g:h'!(.l!!!!#",
"#e9ka;2%(.6$$$d#",
"#&20!!|<(.....1#",
"#^]!!!=;(.l!!!!#",
"#37!!!f*(.l!!!!#",
"#cb[!8_,(.l!!!!#",
"#!5}i{+!(.l!!!!#",
"#!!e)-!!!!!!!!!#",
"#!!!!!!!!!!!!!!#",
"@##############@",
};