/* XPM */
static char *ac_ovars_16x16_xpm[] = {
/* width height ncolors chars_per_pixel */
"16 16 72 1",
"  c #a0a0a0",
". c #303030",
"+ c #d0d0d0",
"@ c #010101",
"# c #020202",
"$ c #050505",
"% c #3f3f3f",
"& c #747474",
"* c #666666",
"= c #adadad",
"- c #c1c1c1",
"; c #9b9b9b",
"> c #dedede",
", c #4c4c4c",
"' c #ffffff",
") c #424242",
"! c #111111",
"~ c #e9e9e9",
"{ c #0a0a0a",
"] c #717171",
"^ c #d5d5d5",
"/ c #565656",
"( c #1a1a1a",
"_ c #5f5f5f",
": c #7a7a7a",
"< c #f5f5f5",
"[ c #f1f1f1",
"} c #252525",
"| c #7e7e7e",
"1 c #858585",
"2 c #181818",
"3 c #474747",
"4 c #999999",
"5 c #3d3d3d",
"6 c #4d4d4d",
"7 c #aaaaaa",
"8 c #f6f6f6",
"9 c #0d0d0d",
"0 c #6c6c6c",
"a c #1e1e1e",
"b c #dcdcdc",
"c c #373737",
"d c #282828",
"e c #a8a8a8",
"f c #3a3a3a",
"g c #e4e4e4",
"h c #fbfbfb",
"i c #cccccc",
"j c #878787",
"k c #fdfdfd",
"l c #fafafa",
"m c #313131",
"n c #e3e3e3",
"o c #3c3c3c",
"p c #515151",
"q c #fefefe",
"r c #929292",
"s c #b1b1b1",
"t c #b4b4b4",
"u c #b8b8b8",
"v c #e5e5e5",
"w c #6f6f6f",
"x c #8f8f8f",
"y c #8c8c8c",
"z c #6e6e6e",
"A c #1d1d1d",
"B c #969696",
"C c #494949",
"D c #fcfcfc",
"E c #d2d2d2",
"F c #efefef",
"G c #4b4b4b",
"@##############@",
"#''''''''''''''#",
"#''''''''''''''#",
"#''''''''''''''#",
"#'''''h%t''''vm@",
"#''''''06''''j)#",
"#'FB|=DE$~''q}7#",
"#gA*45Gkfx''-2l#",
"#&/''82u .''_:'#",
"#3r''',y8!+[9>'#",
"#p1'''%4'z]4C''#",
"#;dF'i{b'^(os''#",
"#kw2cae'''oAD''#",
"#''<nD'''''''''#",
"#''''''''''''''#",
"@##############@",
};