/* XPM */
static char *ac_oprops_16x16_xpm[] = {
/* width height ncolors chars_per_pixel */
"16 16 61 1",
"  c #303030",
". c #d0d0d0",
"+ c #606060",
"@ c #101010",
"# c #a0a0a0",
"$ c #010101",
"% c #020202",
"& c #3f3f3f",
"* c #747474",
"= c #666666",
"- c #adadad",
"; c #5c5c5c",
"> c #080808",
", c #767676",
"' c #c1c1c1",
") c #9b9b9b",
"! c #4c4c4c",
"~ c #ffffff",
"{ c #0a0a0a",
"] c #565656",
"^ c #353535",
"/ c #f5f5f5",
"( c #7e7e7e",
"_ c #858585",
": c #181818",
"< c #5d5d5d",
"[ c #474747",
"} c #999999",
"| c #3d3d3d",
"1 c #cfcfcf",
"2 c #f6f6f6",
"3 c #656565",
"4 c #979797",
"5 c #1e1e1e",
"6 c #535353",
"7 c #dcdcdc",
"8 c #525252",
"9 c #373737",
"0 c #282828",
"a c #a8a8a8",
"b c #e4e4e4",
"c c #fbfbfb",
"d c #cccccc",
"e c #131313",
"f c #fdfdfd",
"g c #727272",
"h c #e3e3e3",
"i c #464646",
"j c #515151",
"k c #2c2c2c",
"l c #929292",
"m c #b8b8b8",
"n c #6f6f6f",
"o c #8c8c8c",
"p c #1d1d1d",
"q c #c7c7c7",
"r c #969696",
"s c #5a5a5a",
"t c #fcfcfc",
"u c #efefef",
"v c #4b4b4b",
"$%%%%%%%%%%%%%%$",
"%~~~~~~~~~~~~~~%",
"%~~~~~~~~~~~~~~%",
"%~~~~~~~~~~~~~~%",
"%~~~~~~~g   ^s.%",
"%~~~~~~~8;qq'3e$",
"%~ur(-t~8,~~~c>$",
"%bp=}|vf8,~~~7%$",
"%*]~~2:m8k++6@<%",
"%[l~~~!o8i44#1~%",
"%j_~~~&}8,~~~~~%",
"%)0u~d{78,~~~~~%",
"%fn:95a~8,~~~~~%",
"%~~/ht~~~~~~~~~%",
"%~~~~~~~~~~~~~~%",
"$%%%%%%%%%%%%%%$",
};