/* XPM */
static char *ac_varsvcs_16x16_xpm[] = {
/* width height ncolors chars_per_pixel */
"16 16 54 1",
"  c #c0c0c0",
". c #707070",
"+ c #010101",
"@ c #020202",
"# c #f7f7f7",
"$ c #bababa",
"% c #070707",
"& c #7f7f7f",
"* c #5c5c5c",
"= c #c6c6c6",
"- c #484848",
"; c #bfbfbf",
"> c #646464",
", c #eaeaea",
"' c #f3f3f3",
") c #dedede",
"! c #ffffff",
"~ c #111111",
"{ c #b7b7b7",
"] c #bdbdbd",
"^ c #717171",
"/ c #1a1a1a",
"( c #eeeeee",
"_ c #e7e7e7",
": c #2b2b2b",
"< c #777777",
"[ c #a9a9a9",
"} c #121212",
"| c #afafaf",
"1 c #aaaaaa",
"2 c #6c6c6c",
"3 c #c9c9c9",
"4 c #1e1e1e",
"5 c #525252",
"6 c #a8a8a8",
"7 c #686868",
"8 c #0e0e0e",
"9 c #878787",
"0 c #727272",
"a c #a5a5a5",
"b c #313131",
"c c #3c3c3c",
"d c #464646",
"e c #fefefe",
"f c #b6b6b6",
"g c #292929",
"h c #838383",
"i c #787878",
"j c #636363",
"k c #8c8c8c",
"l c #4a4a4a",
"m c #555555",
"n c #6e6e6e",
"o c #a2a2a2",
"+@@@@@@@@@@@@@@+",
"@!!!!!!!!!!!!!!@",
"@!!!!!!!!!!!!!!@",
"@!!!!!!!!!!!!!!@",
"@!!!!!!ka!0;!!!@",
"@!!!!!!d3!g_!!!@",
"@!!!!$|}[1~f!!!@",
"@!!!!&m42-:<!!!@",
"@!!!!!on!hk!!!!@",
"@!!!! 5^{c9]!!!@",
"@!!!!i8*j%>.!!!@",
"@!!!!#/e)b!!!!!@",
"@!!!!=l!67!!!!!@",
"@!!!!',!((!!!!!@",
"@!!!!!!!!!!!!!!@",
"+@@@@@@@@@@@@@@+",
};