/* XPM */
static char *appicon_xpm[] = {
/* width height num_colors chars_per_pixel */
"64 64 174 2",
/* colors */
"   c none",
" . c #fdf9f4",
" X c #fcf8f0",
" o c #fcf7f0",
" O c #fdfaf6",
" + c #fefbf7",
" @ c #fefcf9",
" # c #fdfaf5",
" $ c #fdf9f2",
" % c #f6e1c0",
" & c #eab766",
" * c #eab86a",
" = c #ebba6d",
" - c #ebbd74",
" ; c #eec585",
" : c #f3d6a9",
" > c #fbf4e8",
" , c #fcf5eb",
" < c #f0cd94",
" 1 c #f0cd95",
" 2 c #fdf9f3",
" 3 c #fbf2e4",
" 4 c #ecc07a",
" 5 c #eab767",
" 6 c #f3d8ac",
" 7 c #fefdfc",
" 8 c #faeedb",
" 9 c #ebba6e",
" 0 c #fbf3e6",
" q c #edc27e",
" w c #fcf7ef",
" e c #ebbc70",
" r c #ebbb70",
" t c #faefde",
" y c #ecbf78",
" u c #f3d7aa",
" i c #f1d09c",
" p c #ebbc71",
" a c #fcf5ea",
" s c #eab768",
" d c #faeedc",
" f c #fcf6ed",
" g c #edc37f",
" h c #fefcfa",
" j c #eec788",
" k c #f6e0be",
" l c #f3d7ab",
" z c #ecbe75",
" x c #f9edda",
" c c #f1cf9a",
" v c #eab868",
" b c #f5dfbc",
" n c #f1d19e",
" m c #edc482",
" M c #f2d2a0",
" N c #eab96c",
" B c #fefefd",
" V c #ecbe76",
" C c #eab96b",
" Z c #fdfaf4",
" A c #ebbd73",
" S c #f7e4c6",
" D c #f8e9d1",
" F c #f0ce98",
" G c #fbf4e7",
" H c #fefbf8",
" J c #f0cd96",
" K c #fefefe",
" L c #f5deba",
" P c #eab96a",
" I c #eec88b",
" U c #fbf2e5",
" Y c #f8ead3",
" T c #efc88a",
" R c #f5dfbb",
" E c #f9ecd8",
" W c #eaba6d",
" Q c #efc98d",
" ! c #f9edd9",
" ~ c #fcf7ee",
" ^ c #f6e3c4",
" / c #edc27d",
" ( c #efc88b",
" ) c #f3d6a8",
" _ c #f7e3c5",
" ` c #f4dab1",
" ' c #f9ebd5",
" ] c #77a0c9",
" [ c #fdfdfe",
" { c #ecbf77",
" } c #eec687",
" | c #3e78b3",
".  c #f8fafc",
".. c #f7e3c4",
".X c #f8e8cf",
".o c #f9fbfc",
".O c #f3d6a7",
".+ c #edc381",
".@ c #6391c1",
".# c #fdf7ef",
".$ c #f7e6ca",
".% c #6392c1",
".& c #ecc17b",
".* c #79a1ca",
".= c #8eb0d2",
".- c #fcf4e9",
".; c #7ca3cb",
".: c #588abd",
".> c #769fc9",
"., c #4a81b8",
".< c #ebbb6f",
".1 c #f4dbb2",
".2 c #ecc17e",
".3 c #5f8fc0",
".4 c #ebbc72",
".5 c #5689bc",
".6 c #f4dcb5",
".7 c #fbf3e7",
".8 c #f5ddb7",
".9 c #faf1e1",
".0 c #fdf8f0",
".q c #fcf6ec",
".w c #ecbd75",
".e c #f0cb91",
".r c #f8ead2",
".t c #fdfbf6",
".y c #f4dab2",
".u c #fffefe",
".i c #fbf1e2",
".p c #f0ce97",
".a c #f0cc93",
".s c #f9ead3",
".d c #f6e2c3",
".f c #ecc079",
".g c #f2d4a5",
".h c #f7e5c8",
".j c #f9ebd6",
".k c #fefdfb",
".l c #eaba6c",
".z c #fdf8f1",
".x c #f2d5a5",
".c c #f8e8d0",
".v c #fbf3e5",
".b c #ecbe74",
".n c #f8e7cd",
".m c #f7e5c9",
".M c #f6e0bd",
".N c #eec78a",
".B c #f4f7fa",
".V c #fdf8f2",
".C c #f5e1c0",
".Z c #a9c3dd",
".A c #fdf9f5",
".S c #f2d3a2",
".D c #f1d09b",
".F c #a0bcd9",
".G c #abc4de",
".H c #fefdfa",
".J c #f1d09d",
".K c #eec686",
".L c #f3d8ad",
".P c #5588bc",
".I c #91b2d3",
".U c #e3ebf4",
".Y c #81a7cd",
".T c #5387bb",
".R c #edf2f8",
".E c #467db6",
".W c #dee8f2",
".Q c #719cc7",
".! c #ceddeb",
".~ c #e6edf5",
".^ c #bdd1e5",
"./ c #f6f9fb",
/* pixels */
"                                                                                                                                ",
"                             . X o o o O + + + + + + + + @                                                                      ",
"                   # $ # # % & & & & & & & & & & & & & & & & & & & & & & & & * = = = = = = = = - ; : >                          ",
"               , < & 1 2   3 4 & & & & & & & & & & & & & & & & & & & & & & & & & & & & & & & & & & & 5 6 7                      ",
"             8 9 & & & 4 0   X q & & & & & & & & & & & & & & & & & & & & & & & & & & & & & & & & & & & & 1 7                    ",
"           w e & & & & & r t   w y & & & & & & & & & & & & & & & & & & & & & & & & & & & & & & & & & & & & u                    ",
"           i & & & & & & & p a   t s & & & & & & & & & & & & & & & & & & & & & & & & & & & & & & & & & & & 5 d                  ",
"         f 5 & & & & & & & & g h   6 & & & & & & & & & & & & & & & & & & & & & & & & & & & & & & & & & & & & j                  ",
"         k & & & & & & & & & & l   @ z & & & & & & & & & & & & & & & & & & & & & & & & & & & & & & & & & & & & x                ",
"         c & & & & & & & & & & v >   b & & & & & & & & & & & & & & & & & & & & & & & & & & & & & & & & & & & & n                ",
"         m & & & & & & & & & & & M   # N & & & & & & & & & & & & & & & & & & & & & & & & & & & & & & & & & & & 9 B              ",
"         V & & & & & & & & & & & C Z   c & & & & & & & & & & & & & & & & & & & & & & & & & & & & & & & & & & & & t              ",
"         A & & & & & & & & & & & & S   D 5 & & & & & & & & & & & & & & & & & & & & & & & & & & & & & & & & & & 5 8              ",
"         q & & & & & & & & & & & & F     @ + + + + + + + + + + + + + + + + + + + G @ H + + + + + + + + + + + + h                ",
"         J & & & & & & & & & & & & r S                                           @ K                                            ",
"         L & & & & & & & & & & & & & = = = P & & & & & & & & & & & & & & & & & & & I K                                          ",
"         U & & & & & & & & & & & & & & & & & & & & & & & & & & & & & & & & & & & & & Y                                          ",
"           g & & & & & & & & & & & & & & & & & & & & & & & & & & & & & & & & & & & & T                                          ",
"           R & & & & & & & & & & & & & & & & & & & & & & & & & & & & & & & & & & & & & E                                        ",
"           Z W & & & & & & & & & & & & & & & & & & & & & & & & & & & & & & & & & & & & Q                                        ",
"             : & & & & & & & & & & & & & & & & & & & & & & & & & & & & & & & & & & & & & !                                      ",
"             ~ P & & & & & & ^                                             @ / & & & & & (                                      ",
"               ) & & & & & & _                                             @ / & & & & & & E                                    ",
"               2 9 & & & & & & & & & & & & & & & & & & & & & & & & & & & & & & & & & & & & T                                    ",
"                 ` & & & & & & & & & & & & & & & & & & & & & & & & & & & & & & & & & & & & & '                         ] [      ",
"                 @ { & & & & & & & & & & & & & & & & & & & & & & & & & & & & & & & & & & & & }                       | | |.     ",
"                  .. & & & & & & & & & & & & & & & & & & & & & & & & & & & & & & & & & & & & &.X                   | | | | |.o  ",
"                   B ; & & & & & & )                                              .O & & & & &.+ B              .@ | | | | | |  ",
"                     E & & & & & & 1 f.#.#.#.#.#.#.#.#.#.#.#.#.#.#.#.#.#.#.#.#.# f 1 & & & & & &.$                 ] | | | | |.%",
"                       F & & & & & & & & & & & & & & & & & & & & & & & & & & & & & & & & & & & &.& B         | |    .* | | | |.=",
"                      .- P & & & & & & & & & & & & & & & & & & & & & & & & & & & & & & & & & & & - O       | | | |    .; | |.:  ",
"                         : & & & & & & & & & & & & & & & & & & & & & & & & & & & & & & & & & & - 0       | | | | | |    .>.,    ",
"                         ..< & & & & & & & & & & & & & & & & & & & & & & & & & & & & & & & & - 0       | | | | | | | |          ",
"                          .1 & & & & & & & E                                             Z.2 0       | | | | | | | | |.3        ",
"                           O.4 & & & & & & E                                             # >       | | | | | | | | |.5          ",
"                            .6 & & & & & & & & & & & & & & & & & & & & & & & & & & & & z.7       | | | | | | | | |.5            ",
"                             #.< & & & & & & & & & & & & & & & & & & & & & & & & & & z.7       | | | | | | | | |.5              ",
"                               u & & & & & & & & & & & & & & & & & & & & & & & & & z.7       | | | | | | | | |.5                ",
"                               > & & & & & & & & & & & & & & & & & & & & & & & & z.7       | | | | | | | | |.5                  ",
"                                 j & & & & &.< Z                                         | | | | | | | | |.5                    ",
"                                .8 & & & & &.< #                                       | | | | | | | | |.5                      ",
"                                .9 & & & & & & & & & & & & & & & & & & & & z.7       | | | | | | | | |.5                        ",
"                                 7 v & & & & & & & & & & & & & & & & & & z.7       | | | | | | | | |.5     h.0                  ",
"   . & & & & & & & & & & & & &.q.7.w & & & & & & & & & & & & & & & & & z.7       | | | | | | | | |.5     h.e E                  ",
"  .r & & & & & & & & & & & & & f   4 & & & & & & & & & & & & & & & & z.7       | | | | | | | | |.5     h.e & E                  ",
"  .t * & & & & & & & & & & & = B  .< & & & & &.y.u                           | | | | | | | | |.5     h.e & &.i                  ",
"    .p & & & & & & & & & & &.a   ~ & & & & & &.y                           | | | | | | | | |.5     h.e & & & O                  ",
"    .s & & & & & & & & & & &.$  .d & & & & & & & & & & & & & & z.7       | | | | | | | | |.5     h.e & & &.&                    ",
"      .+ & & & & & & & & &.f 7   j & & & & & & & & & & & & & z.7       | | | | | | | | |.5     h.e & & & &.g                    ",
"      .r & & & & & & & & &.h  .j & & & & & & & & & & & & & z.7       | | | | | | | | |.5     h.e & & & & & d                    ",
"        .e & & & & & & &.a  .k q & & & & & & & & & & & &.l 0       | | | | | | | | |.5     h.e & & & & & (                      ",
"         ~ e & & & & & 4.z  .x & & & & & & & & & & & &.l.c       | | | | | | | | |.5     h.e & & & & & N.v                      ",
"           ! N & & &.b.-   b & & & & & & & & & & & & &.n       | | | | | | | | |.5     h.e & & & & & 5.m                        ",
"             ! p &.f >  .M & & & & & & & & & & & & &.N        .B | | | | | | |.5     h.e & & & & & N.m                          ",
"              .V.C X  .6 & & & & & & & & & & & & & & x     |.Z  .B | | | | |.5     h.e & & & & & J.-                            ",
"                   h.A.S & & 5 = = = = = = = = = =.D    .F | |.G  .B | | |.5    .H.J z z z.K.L.v                                ",
"                                                         | | | |.G  .B |.P                                                      ",
"                                                      .I | | | | |.G  .U                                                        ",
"                                                       | | | | | | |                                                            ",
"                                                    .Y | | | | |.T.R                                                            ",
"                                                     | | | |.E.W                                                                ",
"                                                  .Q | | |.!                                                                    ",
"                                                .~ | |.^                                                                        ",
"                                                ./.Z                                                                            "
};
