/* XPM */
static char *bm0_16x16_xpm[] = {
/* width height ncolors chars_per_pixel */
"16 16 67 1",
"  c #000000",
". c #f0f090",
"+ c #020201",
"@ c #e5e589",
"# c #050503",
"$ c #a6a663",
"% c #363626",
"& c #565633",
"* c #fcfc97",
"= c #6c6c41",
"- c #d6d680",
"; c #f4f492",
"> c #e2e2e2",
", c #14140c",
"' c #63633b",
") c #0b0b06",
"! c #ffffff",
"~ c #f2f291",
"{ c #efef8f",
"] c #1f1f12",
"^ c #e6e68a",
"/ c #232315",
"( c #2b2b19",
"_ c #dede85",
": c #19190f",
"< c #cacaca",
"[ c #d0d07d",
"} c #62623b",
"| c #909056",
"1 c #f9f995",
"2 c #d3d37f",
"3 c #cbcb7a",
"4 c #f7f794",
"5 c #65653c",
"6 c #c9c979",
"7 c #858550",
"8 c #9b9b5d",
"9 c #1d1d11",
"0 c #595935",
"a c #c7c777",
"b c #16160d",
"c c #e1e187",
"d c #9c9c5d",
"e c #c9c9c9",
"f c #919157",
"g c #d2d27e",
"h c #3c3c24",
"i c #222214",
"j c #47472a",
"k c #3d3d24",
"l c #5a5a36",
"m c #83834e",
"n c #373727",
"o c #5e5e38",
"p c #fafa96",
"q c #1b1b10",
"r c #4a4a35",
"s c #c2c274",
"t c #ffff99",
"u c #3a3a22",
"v c #e3e388",
"w c #2e2e1b",
"x c #a8a865",
"y c #393922",
"z c #13130b",
"A c #cdcd7b",
"B c #31311d",
"!e+          +<!",
"!>ntttp6s~ttt%>!",
"!>rtt3] +)dttr>!",
"!>rt;qh@;=+atr>!",
"!>rt8 2tt*/&tr>!",
"!>rtl:tttt5,tr>!",
"!>rtyutttt7 {r>!",
"!>rt(jttttf vr>!",
"!>rtwjtttt| cr>!",
"!>rtkuttttm .r>!",
"!>rt':tttt}btr>!",
"!>rt$ [ttp90tr>!",
"!>rt4iwg^o#Atr>!",
"!>rtt-B  zxttr>!",
"!>ntttt_21ttt%>!",
"!e            <!",
};