/* XPM */
static char *bm1_16x16_xpm[] = {
/* width height ncolors chars_per_pixel */
"16 16 30 1",
"  c #000000",
". c #010100",
"+ c #020201",
"@ c #030301",
"# c #050503",
"$ c #363626",
"% c #1c1c10",
"& c #565633",
"* c #fcfc97",
"= c #e2e2e2",
"- c #ffffff",
"; c #232315",
"> c #cacaca",
", c #fdfd98",
"' c #c9c979",
") c #9b9b5d",
"! c #c9c9c9",
"~ c #494934",
"{ c #3d3d24",
"] c #bebe72",
"^ c #363620",
"/ c #373727",
"( c #4a4a35",
"_ c #ecec8e",
": c #e2e288",
"< c #8a8a53",
"[ c #dddd85",
"} c #dbdb83",
"| c #ffff99",
"1 c #1e1e12",
"-!+          +>-",
"-=/||||||['||$=-",
"-=(|||||:1{||~=-",
"-=(||||]% {||~=-",
"-=(||}&.^@{||~=-",
"-=(||<;)*#{||~=-",
"-=(||_,||#{||~=-",
"-=(||||||#{||~=-",
"-=(||||||#{||~=-",
"-=(||||||#{||~=-",
"-=(||||||#{||~=-",
"-=(||||||#{||~=-",
"-=(||||||#{||~=-",
"-=(||||||#{||~=-",
"-=/||||||||||$=-",
"-!            >-",
};