/* XPM */
static char *bm2_16x16_xpm[] = {
/* width height ncolors chars_per_pixel */
"16 16 60 1",
"  c #000000",
". c #010100",
"+ c #a0a060",
"@ c #020201",
"# c #030301",
"$ c #e5e589",
"% c #050503",
"& c #a5a563",
"* c #33331e",
"= c #363626",
"- c #ebeb8d",
"; c #d6d680",
"> c #545432",
", c #fefe98",
"' c #444428",
") c #e2e2e2",
"! c #14140c",
"~ c #cfcf7c",
"{ c #ffffff",
"] c #f2f291",
"^ c #eded8e",
"/ c #e6e68a",
"( c #0d0d07",
"_ c #2c2c1a",
": c #cacaca",
"< c #fdfd98",
"[ c #8f8f56",
"} c #b7b76e",
"| c #373721",
"1 c #282818",
"2 c #0e0e08",
"3 c #959559",
"4 c #f9f995",
"5 c #bdbd71",
"6 c #b9b96f",
"7 c #1d1d11",
"8 c #eaea8c",
"9 c #fbfb97",
"0 c #e1e187",
"a c #c9c9c9",
"b c #5f5f39",
"c c #494934",
"d c #454529",
"e c #cece7c",
"f c #47472a",
"g c #11110a",
"h c #929257",
"i c #dcdc84",
"j c #373727",
"k c #5e5e38",
"l c #fafa96",
"m c #81814d",
"n c #4a4a35",
"o c #ecec8e",
"p c #8a8a53",
"q c #ffff99",
"r c #49492b",
"s c #8c8c54",
"t c #baba70",
"u c #31311d",
"{a@          @:{",
"{)jqqq9e5iqqq=){",
"{)nqq57 # d8qc){",
"{)nq/('0<tgrqc){",
"{)nqh 0qqqm.oc){",
"{)nq;&qqqqs $c){",
"{)nqqqqqql_1qc){",
"{)nqqqqq,k@}qc){",
"{)nqqqqlb.3qqc){",
"{)nqqq]f%+qqqc){",
"{)nqq-u26qqqqc){",
"{)nq4|!~qqqqqc){",
"{)nqp >[[[[[^c){",
"{)nq*       ;c){",
"{)jqqqqqqqqqq=){",
"{a            :{",
};