/* XPM */
static char *bm3_16x16_xpm[] = {
/* width height ncolors chars_per_pixel */
"16 16 65 1",
"  c #000000",
". c #020201",
"+ c #030301",
"@ c #040402",
"# c #050503",
"$ c #060603",
"% c #33331e",
"& c #363626",
"* c #ebeb8d",
"= c #fcfc97",
"- c #575734",
"; c #d6d680",
"> c #f4f492",
", c #e2e2e2",
"' c #c3c375",
") c #14140c",
"! c #5b5b36",
"~ c #bbbb70",
"{ c #ffffff",
"] c #f5f593",
"^ c #bfbf73",
"/ c #939358",
"( c #eded8e",
"_ c #e6e68a",
": c #232315",
"< c #cacaca",
"[ c #abab67",
"} c #4e4e2e",
"| c #f8f895",
"1 c #fdfd98",
"2 c #62623b",
"3 c #b7b76e",
"4 c #0e0e08",
"5 c #878751",
"6 c #cbcb7a",
"7 c #f7f794",
"8 c #8e8e55",
"9 c #1a1a0f",
"0 c #858550",
"a c #0f0f09",
"b c #c7c777",
"c c #a1a160",
"d c #6f6f42",
"e c #16160d",
"f c #eaea8c",
"g c #fbfb97",
"h c #c9c9c9",
"i c #494934",
"j c #747445",
"k c #11110a",
"l c #8d8d54",
"m c #bebe72",
"n c #30301c",
"o c #dcdc84",
"p c #f3f392",
"q c #12120a",
"r c #373727",
"s c #d7d781",
"t c #4a4a2c",
"u c #4a4a35",
"v c #dfdf86",
"w c #e2e288",
"x c #ffff99",
"y c #66663d",
"z c #6e6e42",
"{h.          .<{",
"{,rxxx>'b|xxx&,{",
"{,uxxc4@+)[xxi,{",
"{,ux6.y>p2#;xi,{",
"{,uxza7xx( 5xi,{",
"{,uxx*xxxo /xi,{",
"{,uxxxxf~%:(xi,{",
"{,uxxxxn +l1xi,{",
"{,uxxxx_*8.dxi,{",
"{,uxxxxxxx!$]i,{",
"{,uxm3xxxx0 wi,{",
"{,ux}e7xxxtkgi,{",
"{,ux^+-vwj 8xi,{",
"{,uxx[9  q8xxi,{",
"{,rxxx=ssgxxx&,{",
"{h            <{",
};