/* XPM */
static char *bm4_16x16_xpm[] = {
/* width height ncolors chars_per_pixel */
"16 16 41 1",
"  c #000000",
". c #f0f090",
"+ c #020201",
"@ c #363626",
"# c #ebeb8d",
"$ c #080804",
"% c #afaf69",
"& c #fcfc97",
"* c #fefe98",
"= c #444428",
"- c #e2e2e2",
"; c #5b5b36",
"> c #ffffff",
", c #efef8f",
"' c #0c0c07",
") c #35351f",
"! c #2b2b19",
"~ c #cacaca",
"{ c #62623b",
"] c #282818",
"^ c #caca79",
"/ c #34341f",
"( c #b6b66d",
"_ c #b9b96f",
": c #1d1d11",
"< c #0f0f09",
"[ c #d4d47f",
"} c #fbfb97",
"| c #c9c9c9",
"1 c #3b3b23",
"2 c #898952",
"3 c #373727",
"4 c #1b1b10",
"5 c #4a4a35",
"6 c #ecec8e",
"7 c #e2e288",
"8 c #dddd85",
"9 c #dbdb83",
"0 c #ffff99",
"a c #949459",
"b c #1e1e12",
">|+          +~>",
">-30000009800@->",
">-5000007<{005->",
">-50000*= {005->",
">-50000a4b{005->",
">-50009'(!{005->",
">-500&1{0!{005->",
">-5002:.0!{005->",
">-50[$_00!{005->",
">-50)/%%%b=%,5->",
">-50'       ^5->",
">-506####];#}5->",
">-5000000!{005->",
">-5000000!{005->",
">-30000000000@->",
">|            ~>",
};