/* XPM */
static char *bm5_16x16_xpm[] = {
/* width height ncolors chars_per_pixel */
"16 16 61 1",
"  c #000000",
". c #505030",
"+ c #010100",
"@ c #020201",
"# c #e5e589",
"$ c #a5a563",
"% c #c5c576",
"& c #363626",
"* c #fcfc97",
"= c #787848",
"- c #fefe98",
"; c #e2e2e2",
"> c #5b5b36",
", c #ffffff",
"' c #b8b86e",
") c #a9a965",
"! c #e6e68a",
"~ c #19190f",
"{ c #0d0d07",
"] c #15150c",
"^ c #cacaca",
"/ c #abab67",
"( c #f8f895",
"_ c #fdfd98",
": c #9f9f5f",
"< c #252516",
"[ c #b7b76e",
"} c #878751",
"| c #48482b",
"1 c #8e8e55",
"2 c #777747",
"3 c #b6b66d",
"4 c #c9c979",
"5 c #c7c777",
"6 c #a1a160",
"7 c #16160d",
"8 c #fbfb97",
"9 c #e8e88b",
"0 c #c9c9c9",
"a c #494934",
"b c #e4e489",
"c c #3e3e25",
"d c #898952",
"e c #f3f392",
"f c #d8d882",
"g c #373727",
"h c #b5b56d",
"i c #d7d781",
"j c #fafa96",
"k c #6a6a3f",
"l c #4a4a35",
"m c #ecec8e",
"n c #dfdf86",
"o c #515130",
"p c #ffff99",
"q c #3a3a22",
"r c #49492b",
"s c #18180e",
"t c #13130b",
"u c #6e6e42",
"v c #31311d",
",0@          @^,",
",;gppjeeeee(p&;,",
",;lpp=     kpa;,",
",;lpprv::::5pa;,",
",;lpp~2ppppppa;,",
",;lp9 )8m_pppa;,",
",;lp' .{ ]1-pa;,",
",;lpd rh[o 1pa;,",
",;lpf$*pp-qt*a;,",
",;lppppppp} na;,",
",;lp4%pppp} !a;,",
",;lp|s(pppc<pa;,",
",;lp3+>b#u+/pa;,",
",;lpp:]  76ppa;,",
",;gppp*ii8ppp&;,",
",0            ^,",
};