/* XPM */
static char *bm6_16x16_xpm[] = {
/* width height ncolors chars_per_pixel */
"16 16 73 1",
"  c #000000",
". c #c0c073",
"+ c #010100",
"@ c #020201",
"# c #040402",
"$ c #e5e589",
"% c #050503",
"& c #363626",
"* c #080804",
"= c #565633",
"- c #fcfc97",
"; c #545432",
"> c #f4f492",
", c #fefe98",
"' c #e2e2e2",
") c #ffffff",
"! c #f5f593",
"~ c #b8b86e",
"{ c #939358",
"] c #35351f",
"^ c #eded8e",
"/ c #383821",
"( c #e6e68a",
"_ c #232315",
": c #2b2b19",
"< c #19190f",
"[ c #cacaca",
"} c #4e4e2e",
"| c #252516",
"1 c #282818",
"2 c #909056",
"3 c #34341f",
"4 c #777747",
"5 c #bdbd71",
"6 c #1a1a0f",
"7 c #e0e086",
"8 c #8b8b53",
"9 c #fbfb97",
"0 c #101009",
"a c #c9c9c9",
"b c #69693f",
"c c #67673e",
"d c #d2d27e",
"e c #b0b06a",
"f c #3c3c24",
"g c #b2b26b",
"h c #cece7c",
"i c #7e7e4b",
"j c #3d3d24",
"k c #8d8d54",
"l c #202013",
"m c #30301c",
"n c #727244",
"o c #929257",
"p c #b1b16a",
"q c #dcdc84",
"r c #2a2a19",
"s c #99995c",
"t c #373727",
"u c #434328",
"v c #1b1b10",
"w c #292918",
"x c #3f3f25",
"y c #4a4a35",
"z c #c8c878",
"A c #dbdb83",
"B c #ffff99",
"C c #e3e388",
"D c #49492b",
"E c #a8a865",
"F c #555533",
"G c #18180e",
"H c #c6c677",
")a@          @[)",
")'tBBBBA5qBBB&')",
")'yBB(x # }!By')",
")'yB-]|h,p%nBy')",
")'yBg zBBBbDBy')",
")'yBcrBBBBBBBy')",
")'yBfF.uG/eBBy')",
")'yBw:04oj+EBy')",
")'yB_ ~BB93lBy')",
")'yBm<BBBB8 $y')",
")'yB;vBBBB{ Cy')",
")'yBs hBBB=6,y')",
")'yB!|1H^k+2By')",
")'yBB7x  *i,By')",
")'tBBBB(d>BBB&')",
")a            [)",
};