/* XPM */
static char *bm7_16x16_xpm[] = {
/* width height ncolors chars_per_pixel */
"16 16 43 1",
"  c #000000",
". c #505030",
"+ c #020201",
"@ c #060603",
"# c #c5c576",
"$ c #363626",
"% c #ebeb8d",
"& c #fcfc97",
"* c #f1f191",
"= c #7d7d4b",
"- c #fefe98",
"; c #e2e2e2",
"> c #ffffff",
", c #f5f593",
"' c #7a7a49",
") c #0d0d07",
"! c #2c2c1a",
"~ c #cacaca",
"{ c #909056",
"] c #f9f995",
"^ c #b6b66d",
"/ c #eaea8c",
"( c #e8e88b",
"_ c #c9c9c9",
": c #242415",
"< c #17170d",
"[ c #a3a362",
"} c #3e3e25",
"| c #3b3b23",
"1 c #dcdc84",
"2 c #363620",
"3 c #99995c",
"4 c #373727",
"5 c #5e5e38",
"6 c #e7e78b",
"7 c #1b1b10",
"8 c #3f3f25",
"9 c #4a4a35",
"0 c #c2c274",
"a c #a7a764",
"b c #ffff99",
"c c #a8a865",
"d c #97975a",
">_+          +~>",
">;4b%6666666&$;>",
">;9b!       19;>",
">;9b^aaaad@|]9;>",
">;9bbbbbb.<(b9;>",
">;9bbbbbc [bb9;>",
">;9bbbb,7}-bb9;>",
">;9bbbb{ 0bbb9;>",
">;9bbb-:2bbbb9;>",
">;9bbb# 3bbbb9;>",
">;9bbb'+/bbbb9;>",
">;9bbb8!bbbbb9;>",
">;9bbb)5bbbbb9;>",
">;9bb* =bbbbb9;>",
">;4bbbbbbbbbb$;>",
">_            ~>",
};