/* XPM */
static char *bm8_16x16_xpm[] = {
/* width height ncolors chars_per_pixel */
"16 16 72 1",
"  c #000000",
". c #c0c073",
"+ c #020201",
"@ c #030301",
"# c #040402",
"$ c #050503",
"% c #212113",
"& c #363626",
"* c #080804",
"= c #bcbc71",
"- c #565633",
"; c #fcfc97",
"> c #090905",
", c #f4f492",
"' c #0a0a06",
") c #fefe98",
"! c #444428",
"~ c #e2e2e2",
"{ c #14140c",
"] c #ffffff",
"^ c #707043",
"/ c #b8b86e",
"( c #46462a",
"_ c #0c0c07",
": c #bfbf73",
"< c #939358",
"[ c #eded8e",
"} c #15150c",
"| c #b4b46c",
"1 c #cacaca",
"2 c #f8f895",
"3 c #767647",
"4 c #797948",
"5 c #f9f995",
"6 c #f7f794",
"7 c #65653c",
"8 c #4c4c2d",
"9 c #64643c",
"0 c #0f0f09",
"a c #c7c777",
"b c #d4d47f",
"c c #eaea8c",
"d c #eeee8f",
"e c #c9c9c9",
"f c #f6f694",
"g c #5c5c37",
"h c #aaaa66",
"i c #c4c476",
"j c #8d8d54",
"k c #68683e",
"l c #bebe72",
"m c #898952",
"n c #929257",
"o c #dcdc84",
"p c #4b4b2d",
"q c #373727",
"r c #fafa96",
"s c #82824e",
"t c #1b1b10",
"u c #292918",
"v c #4a4a35",
"w c #ecec8e",
"x c #c8c878",
"y c #e2e288",
"z c #dddd85",
"A c #ffff99",
"B c #adad68",
"C c #3a3a22",
"D c #dada83",
"E c #49492b",
"F c #1e1e12",
"G c #97975a",
"]e+          +1]",
"]~qAAA2x.dAAA&~]",
"]~vAA/}+$*mAAv~]",
"]~vAc_!c54 |Av~]",
"]~vAh aAA;07Av~]",
"]~vA| |AA,'^Av~]",
"]~vArC%B:E{DAv~]",
"]~vAAi}  +<AAv~]",
"]~vA=#gy[j+sAv~]",
"]~vA(%;AAA9'fv~]",
"]~vAupAAAAG zv~]",
"]~vA8t5AAAk>fv~]",
"]~vAl@-Dwn#3Av~]",
"]~vAABF  >4;Av~]",
"]~qAAA)ob6AAA&~]",
"]e            1]",
};