/* XPM */
static char *brk_inactive_16x16_xpm[] = {
/* width height ncolors chars_per_pixel */
"16 16 11 1",
"  c #c6c6c6",
". c #bfbfbf",
"+ c #ffffff",
"@ c #b3b3b3",
"# c #f1f1f1",
"$ c #d3d3d3",
"% c #fdfdfd",
"& c #b5b5b5",
"* c #b6b6b6",
"= c #b4b4b4",
"- c #d2d2d2",
"++++#-.**.-#++++",
"++%-=@@@@@@=-%++",
"+% @@@@@@@@@@ %+",
"+-@@@@@@@@@@@@-+",
"#=@@@@@@@@@@@@=#",
"$@@@@@@@@@@@@@@$",
".@@@@@@@@@@@@@@.",
"&@@@@@@@@@@@@@@&",
"&@@@@@@@@@@@@@@&",
".@@@@@@@@@@@@@@.",
"$@@@@@@@@@@@@@@$",
"#=@@@@@@@@@@@@=#",
"+-@@@@@@@@@@@@-+",
"+% @@@@@@@@@@ %+",
"++%-=@@@@@@=-%++",
"++++#-.**.-#++++",
};