/* XPM */
static char *brk_invalid_16x16_xpm[] = {
/* width height ncolors chars_per_pixel */
"16 16 50 1",
"  c #808080",
". c #e0e0e0",
"+ c #d0d0d0",
"@ c #bababa",
"# c #ededed",
"$ c #a7a7a7",
"% c #f2f2f2",
"& c #f9f9f9",
"* c #c6c6c6",
"= c #c1c1c1",
"- c #eaeaea",
"; c #f3f3f3",
"> c #dedede",
", c #ffffff",
"' c #e9e9e9",
") c #dddddd",
"! c #b3b3b3",
"~ c #cecece",
"{ c #bcbcbc",
"] c #bdbdbd",
"^ c #c4c4c4",
"/ c #c3c3c3",
"( c #dbdbdb",
"_ c #eeeeee",
": c #f1f1f1",
"< c #e7e7e7",
"[ c #d8d8d8",
"} c #949494",
"| c #cfcfcf",
"1 c #bbbbbb",
"2 c #bebebe",
"3 c #c2c2c2",
"4 c #f4f4f4",
"5 c #dcdcdc",
"6 c #a8a8a8",
"7 c #fbfbfb",
"8 c #d6d6d6",
"9 c #cccccc",
"0 c #fdfdfd",
"a c #fafafa",
"b c #d9d9d9",
"c c #fefefe",
"d c #b9b9b9",
"e c #b1b1b1",
"f c #b6b6b6",
"g c #b8b8b8",
"h c #f8f8f8",
"i c #c7c7c7",
"j c #fcfcfc",
"k c #d2d2d2",
",,,,,c'(5<a,,,,,",
",,,,~@5-'>^~&,,,",
",,734,,,,,,4*7,,",
",&*7,,,9f8,,73,,",
",~4,,,,$ g,,,4~,",
"a^,,,,,6 d,,,,@c",
"<>,,,,,! ^,,,,5'",
"5',,,,,= k,,,,'5",
"b-,,,,,| .,,,,-0",
"#[,,,,,) _,,,,(-",
"02,,,,,;2j,,,,ih",
",|;,,,,]}9,,,%+,",
",,|;,,,e /,,;1c,",
",,:{;,,,,,,;|%,,",
",,,0+i(-'[2|,,,,",
",,,,,h-(5#0,,,,,",
};