/* XPM */
static char *close_window_16x16_xpm[] = {
/* width height num_colors chars_per_pixel */
"16 16 22 1",
/* colors */
"  c #c0c0c0",
". c #c2a8a3",
"X c #c9614d",
"o c #cc4c33",
"O c #c9604c",
"+ c #dd8877",
"@ c #cd4f37",
"# c #cc4f36",
"$ c #dd8878",
"% c #dd8a79",
"& c #ffffff",
"* c #eec5bd",
"= c #eec4bc",
"- c #de8b7b",
"; c #cd5038",
": c #efc8c1",
"> c #efc9c2",
", c #dd8b7a",
"< c #de8c7c",
"1 c #de8d7e",
"2 c #de8e7e",
"3 c #c9614c",
/* pixels */
"                ",
" .XooooooooooX. ",
" OooooooooooooO ",
" oooooooooooooo ",
" oooo+@oo#$oooo ",
" ooo%&*@#=&-ooo ",
" ooo;:&*=&>;ooo ",
" oooo;:&&>;oooo ",
" oooo#=&&*@oooo ",
" ooo#=&>:&*@ooo ",
" ooo,&>;;:&<ooo ",
" oooo1;oo;2oooo ",
" oooooooooooooo ",
" 3oooooooooooo3 ",
" .3oooooooooo3. ",
"                "
};
