/* XPM */
static char *execute_16x16_xpm[] = {
/* width height num_colors chars_per_pixel */
"16 16 152 2",
/* colors */
"   c None",
" . c #fdfcf7",
" X c #d8b147",
" o c #c99200",
" O c #c89100",
" + c #c79100",
" @ c #c48f04",
" # c #d6b45b",
" $ c #dfbe68",
" % c #dcb650",
" & c #fdeaba",
" * c #fce7af",
" = c #fdedc3",
" - c #e4c983",
" ; c #c09525",
" : c #ebd7a0",
" > c #d3a428",
" , c #fbe8b2",
" < c #fcda7f",
" 1 c #fce093",
" 2 c #e9d193",
" 3 c #b58a1a",
" 4 c #e2dfd6",
" 5 c #f5ebd0",
" 6 c #cd9a14",
" 7 c #f7e2a9",
" 8 c #fdda7c",
" 9 c #fdd876",
" 0 c #fddc85",
" q c #efd9a1",
" w c #b68810",
" e c #cdc9bf",
" r c #f6f6f6",
" t c #fbf7ec",
" y c #d0a021",
" u c #efd48f",
" i c #fedc81",
" p c #fed76e",
" a c #fed977",
" s c #f3dea6",
" d c #b68814",
" f c #bbb5a6",
" g c #f1f1f1",
" h c #f8f8f8",
" j c #fefdfc",
" k c #d9b24b",
" l c #e3c166",
" z c #ffe08d",
" x c #ffd566",
" c c #ffd76c",
" v c #f7e2ab",
" b c #b78b1b",
" n c #bbad8b",
" m c #ededed",
" M c #f7f7f7",
" N c #fcfcfc",
" B c #e4c981",
" V c #d7ac38",
" C c #fde299",
" Z c #fdd057",
" A c #fbe09a",
" S c #be9633",
" D c #a87a0a",
" F c #a1750a",
" G c #fefefe",
" H c #f5ebd2",
" J c #ce9b15",
" K c #f6e3ae",
" L c #f8df9b",
" P c #f7dd95",
" I c #f7cc57",
" U c #f6c031",
" Y c #f8cf61",
" T c #fadb89",
" R c #f9e9be",
" E c #c1a35a",
" W c #997522",
" Q c #fbfbfa",
" ! c #c2900c",
" ~ c #c08b02",
" ^ c #c3900d",
" / c #bc8804",
" ( c #d0a947",
" ) c #f9d470",
" _ c #f6c337",
" ` c #f8d063",
" ' c #e8d095",
" ] c #a17b22",
" [ c #9a8453",
" { c #eae9e5",
" } c #fdfcfc",
" | c #f3ead3",
".  c #ba8b14",
".. c #f6de9e",
".X c #f8c642",
".o c #f8c848",
".O c #fadd91",
".+ c #c8ac68",
".@ c #936b13",
".# c #b3ab9b",
".$ c #f2f2f2",
".% c #fdfcfa",
".& c #bf9835",
".* c #e0c57f",
".= c #fad163",
".- c #fad36a",
".; c #edd69c",
".: c #a6812c",
".> c #937a42",
"., c #d6d5d3",
".< c #fbfbfb",
".1 c #ddc998",
".2 c #c0993a",
".3 c #fce199",
".4 c #fce197",
".5 c #cfb576",
".6 c #936c11",
".7 c #aba18c",
".8 c #eeeeee",
".9 c #f3f3f3",
".0 c #f9f9f9",
".q c #f4eee0",
".w c #aa7e11",
".e c #f3e2b5",
".r c #f2dda9",
".t c #ac8937",
".y c #927637",
".u c #d2d0cd",
".i c #fafafa",
".p c #fdfdfd",
".a c #b89644",
".s c #d4b876",
".d c #d6be85",
".f c #956e13",
".g c #a79b83",
".h c #f4f4f4",
".j c #dbcba6",
".k c #a47c1c",
".l c #b18f41",
".z c #9c7b2f",
".x c #c5c3bd",
".c c #e5e5e5",
".v c #e8e8e8",
".b c #eaeaea",
".n c #bfb294",
".m c #936b11",
".M c #948561",
".N c #bebdba",
".B c #c0bfbf",
".V c #c0c0c0",
".C c #dedede",
".Z c #dfdfdf",
/* pixels */
"             . X o o o o O + @ #",
"             $ % & * * * * = - ;",
"           : > , < < < < 1 2 3 4",
"         5 6 7 8 9 9 9 0 q w e r",
"       t y u i p p p a s d f g h",
"     j k l z x x x c v b n m M N",
"     B V C Z Z Z Z A S D F F F G",
"   H J K L P I U U Y T R E W Q  ",
"   ! ~ ^ / ( ) _ _ ` ' ] [ { }  ",
"       |. ...X.o.O.+.@.#.$ h N  ",
"    .%.&.*.=.-.;.:.>., g M.< G  ",
"    .1.2.3.4.5.6.7.8.9.0 N G    ",
"  .q.w.e.r.t.y.u g r.i.p        ",
"  .a.s.d.f.g m.h h N G          ",
".j.k.l.z.x.c.v.b m              ",
".n.m.M.N.B.V.V.C.Z.Z.Z.Z        "
};
