/* XPM */
static char *help_16x16_xpm[] = {
/* width height num_colors chars_per_pixel */
"16 16 84 1",
/* colors */
"  c None",
". c #a6b1bc",
"X c #6c90b5",
"o c #467ab0",
"O c #3470ad",
"+ c #477bb0",
"@ c #6e91b5",
"# c #a9b2bd",
"$ c #bcbebf",
"% c #6b90b5",
"& c #2f6dad",
"* c #2e6dad",
"= c #6f92b5",
"- c #bdbebf",
"; c #5583b2",
": c #5a86b2",
"> c #5e8ebf",
", c #cbdaea",
"< c #fafbfd",
"1 c #6391c1",
"2 c #7495b6",
"3 c #a9b3bd",
"4 c #5487bb",
"5 c #f8fafc",
"6 c #ffffff",
"7 c #d8e4f0",
"8 c #dbe6f1",
"9 c #fbfcfd",
"0 c #5588bc",
"q c #316ead",
"w c #aeb5bd",
"e c #7092b5",
"r c #a8c2dc",
"t c #adc5de",
"y c #b1c8e0",
"u c #a0bcd9",
"i c #7595b6",
"p c #4b7db0",
"a c #5f8fc0",
"s c #87aacf",
"d c #487fb6",
"f c #2f6ead",
"g c #bed1e5",
"h c #98b6d6",
"j c #5080b1",
"k c #3973ae",
"l c #3370af",
"z c #bcd0e4",
"x c #eef2f7",
"c c #457db5",
"v c #3f76af",
"b c #3a73ae",
"n c #aec5de",
"m c #e1e9f3",
"M c #4c81b8",
"N c #3f77af",
"B c #4c7eb1",
"V c #3270ae",
"C c #f8fbfc",
"Z c #f7fafc",
"A c #3e78b3",
"S c #5281b1",
"D c #7394b6",
"F c #316fae",
"G c #7997b6",
"H c #adb5bd",
"J c #3873b0",
"K c #d6e2ef",
"L c #336fad",
"P c #b1b7be",
"I c #407ab3",
"U c #7a98b6",
"Y c #bebfbf",
"T c #5d88b3",
"R c #5287bb",
"E c #4d82b8",
"W c #628ab3",
"Q c #bfbfbf",
"! c #7696b6",
"~ c #326fad",
"^ c #aeb6bd",
"/ c #3e76af",
"( c #7897b6",
") c #b0b7bd",
/* pixels */
"    .XoOO+@#    ",
"  $%&******&=-  ",
" $;****&*****:- ",
" @***>,<<,1***2 ",
"3&**45678690**qw",
"e***r6t**y6u***i",
"p***asd*fg6h***j",
"k******lz6xc***v",
"b******n6mM****N",
"B*****VCZA*****S",
"D*****F********G",
"Hq****JK,*****LP",
" 2****I6Z*****U ",
" YT****RE****WQ ",
"  Y!q******~UQ  ",
"    ^!j//S()    "
};
