/* XPM */
static char *info_16x16_xpm[] = {
/* width height num_colors chars_per_pixel */
"16 16 59 1",
/* colors */
"  c None",
". c #a9b3bd",
"X c #7596b8",
"o c #5383b5",
"O c #437bb3",
"+ c #447bb3",
"@ c #5484b5",
"# c #7797b8",
"$ c #abb4bd",
"% c #bcbebf",
"& c #3f78b3",
"* c #3e78b3",
"= c #407ab4",
"- c #4079b4",
"; c #7898b8",
": c #bdbebf",
"> c #618bb6",
", c #658eb6",
"< c #4a80b7",
"1 c #f2f6f9",
"2 c #f0f5f9",
"3 c #457db6",
"4 c #7c9ab9",
"5 c #acb4be",
"6 c #4d82b9",
"7 c #fafbfd",
"8 c #f7f9fb",
"9 c #477eb6",
"0 c #4179b3",
"q c #b0b7be",
"w c #7998b8",
"e c #4b81b8",
"r c #7d9bb9",
"t c #5886b5",
"y c #5c88b6",
"u c #487db4",
"i c #fafcfd",
"p c #f5f8fb",
"a c #4d80b4",
"s c #5987b5",
"d c #5e8ab6",
"f c #819db9",
"g c #afb6be",
"h c #427ab3",
"j c #b3b8be",
"k c #eaf0f7",
"l c #e4ecf4",
"z c #829db9",
"x c #bebfbf",
"c c #688fb7",
"v c #6c91b7",
"b c #bfbfbf",
"n c #7e9bb9",
"m c #5d89b6",
"M c #4c7fb4",
"N c #4c80b4",
"B c #5e89b6",
"V c #809cb9",
"C c #b2b8be",
/* pixels */
"    .XoO+@#$    ",
"  %X&**=-**&;:  ",
" %>****=-****,: ",
" #****<123****4 ",
"5&****6789****0q",
"w******6e******r",
"t******6e******y",
"u******ip******a",
"u******ip******a",
"s******ip******d",
"4******ip******f",
"g0*****ip*****hj",
" r*****kl*****z ",
" xc**********vb ",
"  xn0******hzb  ",
"    qnmMNBVC    "
};
