/* XPM */
static char *save_all_16x16_xpm[] = {
/* width height num_colors chars_per_pixel */
"16 16 19 1",
/* colors */
"  c #8b51a9",
". c #8d52ab",
"X c None",
"o c #dccae5",
"O c #fefdfe",
"+ c #ffffff",
"@ c #fefefe",
"# c #decee7",
"$ c #fcfbfd",
"% c #fdfcfd",
"& c #b8b8b8",
"* c #8d53ab",
"= c #decde7",
"- c #8e54ac",
"; c #764590",
": c #9259ae",
"> c #0b060d",
", c #75448e",
"< c #704188",
/* pixels */
" .............XX",
" XXXXXXXXXXXXXXX",
" X .............",
" X .oO++++++@#..",
" X .$++++++++@..",
" X .%+&&&&&&++*.",
" X .%+++++++++*.",
" X .%+&&&&&&++*.",
" X .$++++++++@..",
" X .oO++++++O=..",
" X .............",
" X .............",
".X .-+++++++O...",
";X .-++*:+++O...",
">X,.-++*:+++O...",
"XX><............"
};
