/* XPM */
static char *abort_16x16_xpm[] = {
/* width height num_colors chars_per_pixel */
"16 16 70 1",
/* colors */
"  c None",
". c #fcf7f6",
"X c #eab7ac",
"o c #dc8472",
"O c #d46954",
"+ c #d46853",
"@ c #db7f6d",
"# c #e8b1a6",
"$ c #fbf3f1",
"% c #ecbdb4",
"& c #cd5138",
"* c #c94025",
"= c #cc4b31",
"- c #e8afa4",
"; c #e4a093",
": c #ce543c",
"> c #d97a67",
", c #da7c6a",
"< c #d05a42",
"1 c #de8d7d",
"2 c #ecbdb3",
"3 c #ce533b",
"4 c #eec3ba",
"5 c #fefefe",
"6 c #e39e90",
"7 c #e6a89b",
"8 c #ce5139",
"9 c #f8e8e5",
"0 c #f0cac3",
"q c #ca462c",
"w c #cb472d",
"e c #f9ece9",
"r c #edbfb6",
"t c #c94126",
"y c #e09383",
"u c #e4a294",
"i c #db8271",
"p c #cc4b32",
"a c #fefcfb",
"s c #d66e5a",
"d c #d46651",
"f c #df8f7f",
"g c #d46752",
"h c #d15e48",
"j c #e09182",
"k c #da7e6c",
"l c #c94227",
"z c #faeeec",
"x c #d56a55",
"c c #d97966",
"v c #f6e1dc",
"b c #e29b8d",
"n c #fbf2f0",
"m c #fdf8f7",
"M c #ca4329",
"N c #f7e5e1",
"B c #e8aea3",
"V c #d7725e",
"C c #fcf6f4",
"Z c #f5ddd8",
"A c #e2998a",
"S c #de8c7c",
"D c #cb482e",
"F c #d66f5b",
"G c #d2634d",
"H c #e29a8c",
"J c #f9edea",
"K c #d66f5a",
"L c #d56b56",
"P c #f8e6e2",
/* pixels */
"    .XoO+@#$    ",
"   %&******=-   ",
"  ;***:>,<***1  ",
" 2**345   6***7 ",
".8*39    0q***we",
"X**r    0q*ty**u",
"i*pa   0q*t# O*s",
"O*d   0q*t#  f*:",
"g*h  0q*t#   j*3",
"k*lz0q*t#    s*x",
"-**cq*t#    vl*b",
"n=***t#    mx*MN",
" B***VC   ZO**A ",
"  S***DF,G***>a ",
"   7w******MHa  ",
"    JuK:3LbP    "
};
