/* XPM */
static char *ac_enumItems_16x16_xpm[] = {
/* width height ncolors chars_per_pixel */
"16 16 29 1",
"  c #000000",
". c #010101",
"+ c #020202",
"@ c #9b9b9b",
"# c #eaeaea",
"$ c #f3f3f3",
"% c #e2e2e2",
"& c #ffffff",
"* c #c4c4c4",
"= c #acacac",
"- c #dbdbdb",
"; c #181818",
"> c #dfdfdf",
", c #a9a9a9",
"' c #949494",
") c #e6e6e6",
"! c #323232",
"~ c #0d0d0d",
"{ c #bebebe",
"] c #f4f4f4",
"^ c #222222",
"/ c #373737",
"( c #131313",
"_ c #b6b6b6",
": c #a4a4a4",
"< c #141414",
"[ c #1d1d1d",
"} c #969696",
"| c #5b5b5b",
".++++++++++++++.",
"+&&&&&&&&&&&&&&+",
"+&&&&&&&&&&&&&&+",
"+&&&&&&&&&&&&&&+",
"+&&/*&!;;;;;|&&+",
"+&&_#&['----)&&+",
"+&&@%&[=&&&&&&&+",
"+&&^{&[}>>>>$&&+",
"+&&^{&[~<<<<,&&+",
"+&&^{&[=&&&&&&&+",
"+&&^{&[=&&&&&&&+",
"+&&^{&[:$$$$]&&+",
"+&&^{&[     (&&+",
"+&&&&&&&&&&&&&&+",
"+&&&&&&&&&&&&&&+",
".++++++++++++++.",
};