/* XPM */
static char *ac_keywords_16x16_xpm[] = {
/* width height ncolors chars_per_pixel */
"16 16 37 1",
"  c #909090",
". c #010101",
"+ c #020202",
"@ c #f7f7f7",
"# c #ededed",
"$ c #414141",
"% c #070707",
"& c #2a2a2a",
"* c #7f7f7f",
"= c #c8c8c8",
"- c #ffffff",
"; c #111111",
"> c #0a0a0a",
", c #2d2d2d",
"' c #c3c3c3",
") c #acacac",
"! c #2f2f2f",
"~ c #9f9f9f",
"{ c #858585",
"] c #d8d8d8",
"^ c #777777",
"/ c #0c0c0c",
"( c #ebebeb",
"_ c #949494",
": c #bebebe",
"< c #1e1e1e",
"[ c #222222",
"} c #161616",
"| c #959595",
"1 c #373737",
"2 c #cccccc",
"3 c #fdfdfd",
"4 c #464646",
"5 c #212121",
"6 c #6a6a6a",
"7 c #0f0f0f",
"8 c #9c9c9c",
".++++++++++++++.",
"+--------------+",
"+--------------+",
"+--------------+",
"+---$~---85'---+",
"+---,|-- 7:----+",
"+---,|-{}2-----+",
"+---,|^>]------+",
"+---,[&;_------+",
"+---,1#)%=-----+",
"+---,|--6<(----+",
"+---,|--@!43---+",
"+---,|---]/*---+",
"+--------------+",
"+--------------+",
".++++++++++++++.",
};