/* XPM */
static char *ac_ofields_16x16_xpm[] = {
/* width height ncolors chars_per_pixel */
"16 16 71 1",
"  c #303030",
". c #e0e0e0",
"+ c #c0c0c0",
"@ c #000000",
"# c #404040",
"$ c #505050",
"% c #f0f0f0",
"& c #010101",
"* c #020202",
"= c #f7f7f7",
"- c #050505",
"; c #414141",
"> c #2a2a2a",
", c #818181",
"' c #595959",
") c #bfbfbf",
"! c #f3f3f3",
"~ c #ffffff",
"{ c #d4d4d4",
"] c #c4c4c4",
"^ c #c3c3c3",
"/ c #1f1f1f",
"( c #1a1a1a",
"_ c #cacaca",
": c #eeeeee",
"< c #343434",
"[ c #dadada",
"} c #f5f5f5",
"| c #e7e7e7",
"1 c #181818",
"2 c #333333",
"3 c #a9a9a9",
"4 c #121212",
"5 c #868686",
"6 c #434343",
"7 c #4d4d4d",
"8 c #aaaaaa",
"9 c #232323",
"0 c #7c7c7c",
"a c #848484",
"b c #939393",
"c c #0d0d0d",
"d c #c5c5c5",
"e c #1e1e1e",
"f c #161616",
"g c #e8e8e8",
"h c #686868",
"i c #282828",
"j c #fbfbfb",
"k c #8b8b8b",
"l c #cccccc",
"m c #131313",
"n c #fdfdfd",
"o c #fafafa",
"p c #545454",
"q c #313131",
"r c #898989",
"s c #5e5e5e",
"t c #191919",
"u c #7d7d7d",
"v c #b8b8b8",
"w c #f8f8f8",
"x c #e5e5e5",
"y c #a4a4a4",
"z c #6e6e6e",
"A c #141414",
"B c #9e9e9e",
"C c #c7c7c7",
"D c #494949",
"E c #5a5a5a",
"F c #efefef",
"&**************&",
"*~~~~~~~~~~~~~~*",
"*~~~~~~~~~~~~~~*",
"*~~~~~~~~~~~~~~*",
"*~~~~~~~D  265}*",
"*~~~~~~~/aC]8<;&",
"*~.k,+~~/3~~~:4&",
"*^mub90~/3~~~~'@",
"*#r~~[-g/3~~~~z@",
"*Ad~~~t)/3~~~~E@",
"*ev~~ncl/3~~~w1&",
"*h$j~B(o/y=!{pi&",
"*%7/q>_~/@@&fsx*",
"*~~F|~~~~~~~~~~*",
"*~~~~~~~~~~~~~~*",
"&**************&",
};