/* XPM */
static char *ac_objects_16x16_xpm[] = {
/* width height ncolors chars_per_pixel */
"16 16 56 1",
"  c #f0f0f0",
". c #010101",
"+ c #020202",
"@ c #ededed",
"# c #757575",
"$ c #f2f2f2",
"% c #2a2a2a",
"& c #f9f9f9",
"* c #767676",
"= c #aeaeae",
"- c #f3f3f3",
"; c #e2e2e2",
"> c #3e3e3e",
", c #ffffff",
"' c #d4d4d4",
") c #1f1f1f",
"! c #919191",
"~ c #343434",
"{ c #1c1c1c",
"] c #d7d7d7",
"^ c #989898",
"/ c #828282",
"( c #474747",
"_ c #242424",
": c #262626",
"< c #dfdfdf",
"[ c #3d3d3d",
"} c #afafaf",
"| c #363636",
"1 c #949494",
"2 c #4d4d4d",
"3 c #f6f6f6",
"4 c #323232",
"5 c #0d0d0d",
"6 c #f4f4f4",
"7 c #161616",
"8 c #959595",
"9 c #525252",
"0 c #282828",
"a c #686868",
"b c #8b8b8b",
"c c #131313",
"d c #878787",
"e c #a5a5a5",
"f c #464646",
"g c #fefefe",
"h c #2e2e2e",
"i c #444444",
"j c #212121",
"k c #6a6a6a",
"l c #7d7d7d",
"m c #9c9c9c",
"n c #f8f8f8",
"o c #383838",
"p c #494949",
"q c #fcfcfc",
".++++++++++++++.",
"+,,,,,,,,,,,,,,+",
"+,,,,,,,,,,,,,,+",
"+,,,,,,,,,,,,,,+",
"+,,,,q^i0[!&,,,+",
"+,,,q2h='}4>n,,+",
"+,,,m{ ,,,6jb,,+",
"+,,,p#,,,,,/~,,+",
"+,,,%1,,,,,e7,,+",
"+,,,|d,,,,,8:,,+",
"+,,,log,,,,fk,,+",
"+,,,@)a-,3*c;,,+",
"+,,,,;95_5(],,,+",
"+,,,,,,6<$,,,,,+",
"+,,,,,,,,,,,,,,+",
".++++++++++++++.",
};