/* XPM */
static char *ac_svcs_16x16_xpm[] = {
/* width height ncolors chars_per_pixel */
"16 16 31 1",
"  c #505050",
". c #010101",
"+ c #020202",
"@ c #040404",
"# c #ffffff",
"$ c #e9e9e9",
"% c #717171",
"& c #d5d5d5",
"* c #919191",
"= c #cdcdcd",
"- c #dbdbdb",
"; c #7a7a7a",
"> c #252525",
", c #e7e7e7",
"' c #181818",
") c #d8d8d8",
"! c #5d5d5d",
"~ c #a9a9a9",
"{ c #0c0c0c",
"] c #848484",
"^ c #c9c9c9",
"/ c #e8e8e8",
"( c #e4e4e4",
"_ c #545454",
": c #6a6a6a",
"< c #626262",
"[ c #9c9c9c",
"} c #787878",
"| c #b8b8b8",
"1 c #b2b2b2",
"2 c #555555",
".++++++++++++++.",
"+##############+",
"+##############+",
"+##############+",
"+#######}'''''%+",
"+#######: ----$+",
"+#[=#1|#:!#####+",
"+#2~#;]#:_,,,/#+",
"+#######:@{{{'#+",
"+#######:!#####+",
"+#######:!#####+",
"+#^(#&)#:!#####+",
"+#>*#2<#:!#####+",
"+##############+",
"+##############+",
".++++++++++++++.",
};