/* XPM */
static char *bm9_16x16_xpm[] = {
/* width height ncolors chars_per_pixel */
"16 16 73 1",
"  c #000000",
". c #010100",
"+ c #020201",
"@ c #040402",
"# c #e5e589",
"$ c #c5c576",
"% c #33331e",
"& c #363626",
"* c #080804",
"= c #afaf69",
"- c #6c6c41",
"; c #2f2f1c",
"> c #f4f492",
", c #e2e2e2",
"' c #c3c375",
") c #63633b",
"! c #ffffff",
"~ c #f2f291",
"{ c #1f1f12",
"] c #bfbf73",
"^ c #dede85",
"/ c #0d0d07",
"( c #2c2c1a",
"_ c #15150c",
": c #cacaca",
"< c #f8f895",
"[ c #2d2d1b",
"} c #767647",
"| c #797948",
"1 c #0e0e08",
"2 c #959559",
"3 c #d3d37f",
"4 c #f7f794",
"5 c #4c4c2d",
"6 c #c9c979",
"7 c #e0e086",
"8 c #16160d",
"9 c #6d6d41",
"0 c #eaea8c",
"a c #fbfb97",
"b c #c9c9c9",
"c c #67673e",
"d c #f6f694",
"e c #494934",
"f c #454529",
"g c #a3a362",
"h c #47472a",
"i c #868650",
"j c #3d3d24",
"k c #11110a",
"l c #c4c476",
"m c #68683e",
"n c #262616",
"o c #d8d882",
"p c #737345",
"q c #99995c",
"r c #12120a",
"s c #83834e",
"t c #373727",
"u c #e7e78b",
"v c #434328",
"w c #1b1b10",
"x c #3f3f25",
"y c #4a4a35",
"z c #ecec8e",
"A c #dbdb83",
"B c #ffff99",
"C c #e3e388",
"D c #a8a865",
"E c #555533",
"F c #13130b",
"G c #cdcd7b",
"H c #717144",
"!b+          +:!",
"!,tBBBdl$<BBB&,!",
"!,yBBgk +_DBBe,!",
"!,yB'+5u4s+]Be,!",
"!,yBEk~BBBxvBe,!",
"!,yB(hBBBB}*ae,!",
"!,yB%jBBBBm #e,!",
"!,yBH@GBB08 Ae,!",
"!,yBuw/9|{j 7e,!",
"!,yBB#c;f=2 >e,!",
"!,yBBBBBBB){Be,!",
"!,yBinaBB~F-Be,!",
"!,yB6.pzohrCBe,!",
"!,yBBq1  [GBBe,!",
"!,tBBB<3^BBBB&,!",
"!b            :!",
};