/* XPM */
static char *bmgeneric_16x16_xpm[] = {
/* width height ncolors chars_per_pixel */
"16 16 30 1",
"  c #000100",
". c #454a45",
"+ c #040504",
"@ c #050605",
"# c #495a49",
"$ c #cfd7cf",
"% c #e2e2e2",
"& c #ffffff",
"* c #bec0be",
"= c #818581",
"- c #9f9f9f",
"; c #95b695",
"> c #3e493e",
", c #86a386",
"' c #b7b9b7",
") c #a7cea7",
"! c #b6e2b6",
"~ c #3f4a3f",
"{ c #768e76",
"] c #979b97",
"^ c #ccffcc",
"/ c #d1d1d1",
"( c #819d81",
"_ c #9da09d",
": c #636863",
"< c #828682",
"[ c #667a66",
"} c #95b795",
"| c #acafac",
"1 c #6d836d",
"&% @@@@@@@@@@ %&",
"&%~^^^^^^^^^^>%&",
"&%~^^^^^^^^^^>%&",
"&%~^^^^^^^^^^>%&",
"&%~^^^^^^^^^^>%&",
"&%~^^^^^^^^^^>%&",
"&%~^^^^^^^^^^>%&",
"&%~^^^^^^^^^^>%&",
"&%~^^^^^^^^^^>%&",
"&%~^^^^#!^^^^>%&",
"&%~^^^;$.)^^^>%&",
"&%~^^,<&&:}^^>%&",
"&%~^{]&&&&=(^>%&",
"&%~[|&&&&&&_1>%&",
"&%@*&&&&&&&&'+%&",
"&/-&&&&&&&&&&-/&",
};