/* XPM */
static char *bookmark_16x16_xpm[] = {
/* width height ncolors chars_per_pixel */
"16 15 2 1",
"  c None",
". c #00c000",
"                ",
"      .....     ",
"      .....     ",
"      .....     ",
"      .....     ",
"      .....     ",
"      .....     ",
"      .....     ",
"      .....     ",
"      .....     ",
"      .....     ",
"      .....     ",
"      .. ..     ",
"      .   .     ",
"                ",
};