/* XPM */
static char *brk_16x16_xpm[] = {
/* width height ncolors chars_per_pixel */
"16 16 71 1",
"  c #ff0000",
". c #000000",
"+ c #909090",
"@ c #404040",
"# c #020202",
"$ c #030303",
"% c #757575",
"& c #ebc7c7",
"* c #414141",
"= c #b4b3b3",
"- c #060606",
"; c #f3cfcf",
"> c #f48989",
", c #070707",
"' c #c6c6c6",
") c #888888",
"! c #767676",
"~ c #474444",
"{ c #ffbfbf",
"] c #ffffff",
"^ c #424242",
"/ c #cecece",
"( c #0a0a0a",
"_ c #2d2d2d",
": c #ff0202",
"< c #f4d0d0",
"[ c #747070",
"} c #919191",
"| c #ff3434",
"1 c #0c0b0b",
"2 c #d7d7d7",
"3 c #d8d8d8",
"4 c #8d8d8d",
"5 c #b1acac",
"6 c #2b2b2b",
"7 c #0c0c0c",
"8 c #cac9c9",
"9 c #ffbebe",
"0 c #c4bebe",
"a c #b0abab",
"b c #0d0c0c",
"c c #ff9797",
"d c #5a5656",
"e c #ffb2b2",
"f c #adacac",
"g c #c5c5c5",
"h c #ff0303",
"i c #f48c8c",
"j c #c3bdbd",
"k c #e4e4e4",
"l c #ff9494",
"m c #878787",
"n c #fdfdfd",
"o c #ecc8c8",
"p c #464343",
"q c #e3e3e3",
"r c #b5b4b4",
"s c #ffb3b3",
"t c #f5d1d1",
"u c #444444",
"v c #feb2b2",
"w c #2c2c2c",
"x c #292929",
"y c #ff3535",
"z c #c9c8c8",
"A c #acabab",
"B c #6f6f6f",
"C c #8c8c8c",
"D c #736f6f",
"E c #6e6e6e",
"F c #595555",
"]]]]n}6#,_Bk]]]]",
"]]]'1A<se;zp4]]]",
"]]CD{y    y{au]]",
"]C5ih      hcD']",
"q~9h        h91n",
"E8|          |A}",
"w<            <6",
"-s            v7",
".s            s/",
"xt            &*",
"+f|          |=)",
"nb9:        :9F3",
"]g[l:      :>j!]",
"]]^09y    y9[C]]",
"]]]%drosetfbg]]]",
"]]]]2m@$(x+n]]]]",
};