/* XPM */
static char *close_16x16_xpm[] = {
/* width height num_colors chars_per_pixel */
"16 16 15 1",
/* colors */
"  c None",
". c #195ea4",
"X c #1a5fa5",
"o c #0b2744",
"O c #1a5ea2",
"+ c #33302c",
"@ c #787878",
"# c #403c36",
"$ c #040403",
"% c #767676",
"& c #4c4842",
"* c #777777",
"= c #707070",
"- c #eab766",
"; c #69512c",
/* pixels */
"          .X    ",
"         .X     ",
"        .XXXXXo ",
"         .X   Oo",
"+@@@@@#$  .X   O",
"%@@@@@@&        ",
"*@@@@@@@@@@@*=  ",
"                ",
"--------------  ",
"--------------  ",
"--------------  ",
"--------------  ",
"--------------  ",
"--------------  ",
"--------------  ",
";------------;  "
};
