/* XPM */
static char *close_all_16x16_xpm[] = {
/* width height num_colors chars_per_pixel */
"16 16 14 1",
/* colors */
"  c None",
". c #195ea4",
"X c #1a5fa5",
"o c #0b2744",
"O c #1a5ea2",
"+ c #5b5b5b",
"@ c #787878",
"# c #050505",
"$ c #727272",
"% c #e9b665",
"& c #777777",
"* c #dca95e",
"= c #eab766",
"- c #735931",
/* pixels */
"          .X    ",
"         .X     ",
"        .XXXXXo ",
"         .X   Oo",
"+@@@+ #   .X   O",
"@@@@@@@@@$      ",
"                ",
"%%%%% +@@&+ #   ",
"%%%%% @@@@@@@@@$",
"%%%%%           ",
"%%%%% %%%%%%%%%%",
"*%%%% %%%%%%%%=%",
"-%%%% %%%%%%%%=%",
"      %%%%%%%%=%",
"      *%%%%%%%%*",
"      -%%%%%%%%-"
};
