/* XPM */
static char *compile_16x16_xpm[] = {
/* width height ncolors chars_per_pixel */
"16 16 110 2",
"   c #e0e0e0",
" . c #c0c0c0",
" + c #99daa1",
" @ c #3ab449",
" # c #25c736",
" $ c #338537",
" % c #c5ebca",
" & c #47cc56",
" * c #c6c6c6",
" = c #24ac35",
" - c #29ba39",
" ; c #338135",
" > c #a3e7ac",
" , c #bfbfbf",
" ' c #c1c1c1",
" ) c #eaeaea",
" ! c #42ca53",
" ~ c #e2e2e2",
" { c #e4f6e7",
" ] c #6dc777",
" ^ c None",
" / c #1fda30",
" ( c #339039",
" _ c #33a63f",
" : c #dddddd",
" < c #338a38",
" [ c #4fca5e",
" } c #c4c4c4",
" | c #c4ebc9",
" 1 c #33a13d",
" 2 c #24d335",
" 3 c #edfcee",
" 4 c #eeeeee",
" 5 c #33bb44",
" 6 c #337934",
" 7 c #e9fbeb",
" 8 c #69d776",
" 9 c #37863a",
" 0 c #f1f1f1",
" a c #49c458",
" b c #11ad22",
" c c #dfdfdf",
" d c #47b352",
" e c #434343",
" f c #363636",
" g c #4d4d4d",
" h c #33953b",
" i c #e6e6e6",
" j c #cfcfcf",
" k c #21af32",
" l c #cdf4d2",
" m c #338a37",
" n c #11bc22",
" o c #d5f8d9",
" p c #3fc64e",
" q c #abeeb3",
" r c #bebebe",
" s c #c2c2c2",
" t c #55cf64",
" u c #eafcec",
" v c #11a022",
" w c #f4f4f4",
" x c #119922",
" y c #56d166",
" z c #21d232",
" A c #535353",
" B c #e8e8e8",
" C c #66ab6b",
" D c #38b747",
" E c #e4e4e4",
" F c #11cb22",
" G c #d0f7d5",
" H c #cccccc",
" I c #45cb55",
" J c #7fe18c",
" K c #fafafa",
" L c #545454",
" M c #e3e3e3",
" N c #3c3c3c",
" O c #2abc3b",
" P c #8ce497",
" Q c #464646",
" R c #515151",
" S c #a3c7a4",
" T c #2eb63f",
" U c #46b351",
" V c #339b3c",
" W c #a3c9a5",
" X c #9adaa2",
" Y c #74d681",
" Z c #b1b1b1",
" ` c #b2efba",
".  c #d1d1d1",
".. c #4e4e4e",
".+ c #2bcb3c",
".@ c #44cc55",
".# c #f8f8f8",
".$ c #e5e5e5",
".% c #8ba58c",
".& c #e1e1e1",
".* c #337d34",
".= c #555555",
".- c #a3bca4",
".; c #59d569",
".> c #3dc54c",
"., c #494949",
".' c #fcfcfc",
".) c #d2d2d2",
".! c #efefef",
".~ c #4b4b4b",
" ^ ^ { 3 7 u { ^ ^ ^ ^ ^ ^ ^ ^ ^",
" ^ ^ % o l G | ^ ^ ^ }.= } ~.= i",
" ^ ^ + ` > q X ^ ^ ^ L ^ L ^ L i",
" ^ ^ ] P Y J ] ^ ^ ^ A ^ A ^ A i",
" ^ ^ d 8 a.; U ^ ^ ^ s R s.& R j",
" ^ ^ _ y 5.@ _ ^ ^ ^ ^ ^ ^ ^ ^ ^",
" ^ ^ 1 t 5 ! 1 ^ ^ ^ *.. ^ '.. '",
" ^ ^ V [ = T V ^ ^ ^.$ g ^ g ^ g",
" ^ ^ h @ x = h ^ ^ ^ E.~ ^.~ ^.~",
" C ( 9 D v k 9 ( C ^ }.,   .., .",
" m & I O b - p.> < ^ ^ ^ ^ ^ ^ ^",
" W $.+ n n n # $ W ^ r Q r c Q E",
" ^ S ; 2 F z ; S ^ ^ e ^ e ^ e M",
" ^ ^.-.* /.*.- ^ ^ ^ N ^ N ^ N.&",
" K c H.% 6.%.  : ) 0 Z f Z.) f ,",
".'.!.$.$.$.$ B 4 w.#.#.#.#.#.#.#",
};