/* XPM */
static char *debug_pause_16x16_xpm[] = {
/* width height num_colors chars_per_pixel */
"16 16 50 1",
/* colors */
"  c None",
". c #dad5d5",
"X c #b33132",
"o c #b03d3e",
"O c #f0f0f0",
"+ c #efefef",
"@ c #c40003",
"# c #b04546",
"$ c #b69191",
"% c #bd1314",
"& c #c20506",
"* c #bf0c0d",
"= c #ded9d9",
"- c #ae4e4f",
"; c #af7373",
": c #b07171",
"> c #b48282",
", c #b42d2e",
"< c #b48989",
"1 c #e8e6e6",
"2 c #bf0a0b",
"3 c #ae5d5d",
"4 c #c0aaaa",
"5 c #b82021",
"6 c #d0c5c5",
"7 c #b48686",
"8 c #f9f9fc",
"9 c #bb1c1d",
"0 c #a0b2d4",
"q c #385ca6",
"w c #a8b8d8",
"e c #af5152",
"r c #2951a0",
"t c #6fa3f5",
"y c #699ff4",
"u c #3056a2",
"i c #bca0a0",
"p c #71a6f9",
"a c #6fa5f8",
"s c #6da1f3",
"d c #c4b1b1",
"f c #b52627",
"g c #6097ee",
"h c #5890e9",
"j c #bc1718",
"k c #578fe8",
"l c #d2c9c9",
"z c #5087e1",
"x c #4f85df",
"c c #9caed2",
/* pixels */
"      .Xo.      ",
" O   +o@@oO   + ",
" #$ .%&&@@*= $# ",
" -; :&&@@@@: ;- ",
" >, <&&&&&@< ,> ",
" 12>O3%&&*3O>*1 ",
"  425>6==67X*4  ",
"   ,&@@888@@888 ",
"9&&&&&80qqw8wqq0",
".66e&&8rtyu8utyu",
"  i5&&8rppr8rpar",
" >2>o&8ryyr8rssr",
"1&d 1f8rghr8rggr",
"4j   +8rhkr8rhkr",
"l:    8rzxu8uzxu",
"       cuuw 0uuw"
};
