/* XPM */
static char *debug_step_16x16_xpm[] = {
/* width height num_colors chars_per_pixel */
"16 16 53 1",
/* colors */
"  c None",
". c #dad5d5",
"X c #b33132",
"o c #b03d3e",
"O c #f0f0f0",
"+ c #efefef",
"@ c #c40003",
"# c #b04546",
"$ c #b69191",
"% c #bd1314",
"& c #c20506",
"* c #bf0c0d",
"= c #ded9d9",
"- c #ae4e4f",
"; c #af7373",
": c #b07171",
"> c #b48282",
", c #b42d2e",
"< c #b48989",
"1 c #e8e6e6",
"2 c #bf0a0b",
"3 c #ae5d5d",
"4 c #fefefe",
"5 c #c0aaaa",
"6 c #b82021",
"7 c #d0c5c5",
"8 c #3258a3",
"9 c #3258a5",
"0 c #bb1c1d",
"q c #2851a1",
"w c #6395e7",
"e c #af5152",
"r c #859cc8",
"t c #6fa5f8",
"y c #5d90e2",
"u c #bca0a0",
"i c #5f95ec",
"p c #6198ee",
"a c #659aef",
"s c #689ef4",
"d c #5689dd",
"f c #568ae0",
"g c #2e58a6",
"h c #c4b1b1",
"j c #b52627",
"k c #728cc0",
"l c #5a91ea",
"z c #5186dd",
"x c #bc1718",
"c c #274fa0",
"v c #4d83db",
"b c #d2c9c9",
"n c #b9c1ce",
/* pixels */
"      .Xo.      ",
" O   +o@@oO   + ",
" #$ .%&&@@*= $# ",
" -; :&&@@@@: ;- ",
" >, <&&&&&@< ,> ",
" 12>O3%&&*44>*1 ",
"  526>7==74845  ",
"   ,&@@&&&4894  ",
"0&&&&&44444qw940",
".77e&&4r888qty84",
"  u6&&48ipapssd8",
" >2>o&4qipppppfg",
"1&h 1j4kqqqqlzg4",
"5x   +44444cvg45",
"b:        48g4:b",
"           8n   "
};
