/* XPM */
static char *debug_16x16_xpm[] = {
/* width height num_colors chars_per_pixel */
"16 16 59 1",
/* colors */
"  c None",
". c #dad5d5",
"X c #b23839",
"o c #f0f0f0",
"O c #fbfbfb",
"+ c #ebeaea",
"@ c #b03d3e",
"# c #c40003",
"$ c #b04546",
"% c #b79191",
"& c #bd1314",
"* c #b69191",
"= c #ae4e4f",
"- c #af7373",
"; c #b07575",
": c #b38585",
"> c #b42d2e",
", c #b48989",
"< c #e7e5e5",
"1 c #bf0c0d",
"2 c #f1f1f1",
"3 c #ae5d5d",
"4 c #bd1213",
"5 c #f2f2f2",
"6 c #b48686",
"7 c #c4b0b0",
"8 c #c0090a",
"9 c #b62627",
"0 c #b38484",
"q c #cdc2c2",
"w c #ded9d9",
"e c #cfc4c4",
"r c #b48a8a",
"t c #b33132",
"y c #b23334",
"u c #c10809",
"i c #bb1c1d",
"p c #b38282",
"a c #dbd6d6",
"s c #d0c5c5",
"d c #af5152",
"f c #bb9d9d",
"g c #bca0a0",
"h c #b82021",
"j c #b48282",
"k c #bf0a0b",
"l c #b13e3f",
"z c #e8e6e6",
"x c #c20506",
"c c #c5b2b2",
"v c #b52627",
"b c #c0aaaa",
"n c #bc1718",
"m c #efefef",
"M c #af6c6c",
"N c #c1aaaa",
"B c #d2c9c9",
"V c #b07171",
"C c #b17171",
/* pixels */
"      .XX.      ",
" oO  +@##@+  Oo ",
" $% .&####&. *$ ",
" =- ;######; -= ",
" :> ,######, >: ",
" <1:234##43561< ",
"  7890qwwert87  ",
"   y###uu###y   ",
"i######pp######i",
"assd###ff###dssa",
"  gh###ff###hg  ",
" jk:l##ff##l:kj ",
"zxc zv#ff#vz cxz",
"bn   mMNNMm   nb",
"BV            CB",
"                "
};
