/* XPM */
static char *module_help_16x16_xpm[] = {
/* width height num_colors chars_per_pixel */
"16 16 33 1",
/* colors */
"  c #c0c0c0",
". c #7f7f7f",
"X c #535353",
"o c #fdfdfd",
"O c #ffffff",
"+ c #f1f1f1",
"@ c #cccccc",
"# c #c3c3c3",
"$ c #bababa",
"% c #dbdbdb",
"& c #7c98b6",
"* c #497aae",
"= c #2767aa",
"- c #5a84b1",
"; c #034d9b",
": c #306dad",
"> c #79a3cb",
", c #000470",
"< c #6c9ac6",
"1 c #e2eaf2",
"2 c #155aa3",
"3 c #115aa0",
"4 c #e4edf4",
"5 c #08519e",
"6 c #185ca4",
"7 c #7ba2cb",
"8 c #004c99",
"9 c #1f61a7",
"0 c #80a6cd",
"q c #81a6cd",
"w c #696969",
"e c #bebebe",
"r c #7da4cc",
/* pixels */
" .XXXXXXXXXX.   ",
" XoOOOOOOOOoX   ",
" XoOOOOOOOOoX   ",
" XoOOOOOOOOoX   ",
" XoOOOOOOOOoX   ",
" XoOOOOOOOOoX   ",
" XoOOOOO+@# $   ",
" XoOOOO% &*=*&  ",
" XoOOO+ -=====- ",
" XoOOO@&=;OOO:=&",
" XoOOO#*=O>,<1=*",
" XoOOO ==234O5==",
" XoOOO#*==678==*",
" XoOOO@&=90Oq9=&",
" .XXXXwe-==r==- ",
"         &*=*&  "
};
