/* XPM */
static char *save_as_16x16_xpm[] = {
/* width height num_colors chars_per_pixel */
"16 16 44 1",
/* colors */
"  c #8b51a9",
". c #8d52ab",
"X c None",
"o c #dccae5",
"O c #fefdfe",
"+ c #ffffff",
"@ c #fefefe",
"# c #decee7",
"$ c #fcfbfd",
"% c #fdfcfd",
"& c #cc4b32",
"* c #8d53ab",
"= c #aaaaaa",
"- c #1f1f1f",
"; c #010101",
": c #5a5a5a",
"> c #b7b7b7",
", c #f2f2f2",
"< c #0e0e0e",
"1 c #1c1c1c",
"2 c #565656",
"3 c #020202",
"4 c #666666",
"5 c #6f6f6f",
"6 c #656565",
"7 c #ddcce6",
"8 c #7c4897",
"9 c #0a060c",
"0 c #525252",
"q c #382044",
"w c #8c51aa",
"e c #704188",
"r c #070409",
"t c #515151",
"y c #8e54ac",
"u c #c9c9c9",
"i c #0d0d0d",
"p c #9259ae",
"a c #75448e",
"s c #0b060d",
"d c #884fa4",
"f c #6f4086",
"g c #070408",
"h c #141414",
/* pixels */
" ..............X",
" .oO+++++++@#..X",
" .$+++++++++@..X",
" .%+&&&&&&&++*.X",
" .%++++++++++*.X",
" .%=&&-;X:>++*.X",
" .$,<1223X4@@..X",
" .oO5X2XX2X67..X",
" ...89;X202Xqw.X",
" ....er2t202XqwX",
" .y+++ui2t202XqX",
" .y++*pui2t202XX",
" .y++*p+ui2t20XX",
"a.y++*p++ui2tXX2",
"sd........fgXX22",
"XXXXXXXXXXXXX22h"
};
