/* XPM */
static char *select_all_16x16_xpm[] = {
/* width height ncolors chars_per_pixel */
"16 16 12 1",
"  c #cedcbd",
". c None",
"+ c #709445",
"@ c #4d6b1f",
"# c #3f5b10",
"$ c #436014",
"% c #5f8032",
"& c #527225",
"* c #81a757",
"= c #769a4b",
"- c #658739",
"; c #7ea454",
"................",
".** ** ** ** **.",
".;            ;.",
".              .",
".=            =.",
".+            +.",
".              .",
".-            -.",
".%            %.",
".              .",
".&            &.",
".@            @.",
".              .",
".$            $.",
".## ## ## ## ##.",
"................",
};